<svg width="47" height="47" viewBox="0 0 47 47" fill="none" xmlns="http://www.w3.org/2000/svg">
<path d="M26.12 12.0193C26.12 11.0193 26.12 10.0692 26.12 9.12921C26.0834 7.80554 25.6992 6.51487 25.0062 5.38653C24.3132 4.2582 23.3358 3.33216 22.1718 2.70099C21.0077 2.06982 19.6981 1.75599 18.3744 1.79083C17.0507 1.82567 15.759 2.2077 14.6298 2.89923C13.2847 3.73712 12.2357 4.97503 11.6298 6.43927C10.8598 8.23927 11.0799 10.1293 11.0599 12.0193H26.12ZM19.9501 31.4695C19.9501 31.6495 19.9501 31.8093 19.9501 31.9593V44.7396C19.9501 45.6796 20.2699 45.9896 21.2299 45.9896C28.2699 45.9896 35.31 45.9896 42.35 45.9896C43.35 45.9896 43.66 45.6795 43.66 44.6595V32.0296C43.66 31.8496 43.66 31.6695 43.66 31.4695H19.9501ZM18.83 45.9793C18.83 45.2093 18.7499 44.4994 18.7499 43.7894C18.7499 39.8894 18.7499 35.9892 18.7499 32.0892V31.4993C17.5499 31.2493 17.2299 30.8693 17.2299 29.6893V26.5794C17.2299 25.3394 17.7098 24.8494 18.9398 24.8494H34.4901C34.2901 22.8494 34.12 20.8492 33.93 18.9192C33.8999 18.1142 33.7924 17.3142 33.6097 16.5296C32.6097 13.4696 30.0997 12.9594 27.2997 13.3294V15.6595C27.4997 15.7295 27.6898 15.7894 27.8798 15.8694C28.2689 16.0324 28.6203 16.2742 28.9115 16.5794C29.2027 16.8846 29.4275 17.2466 29.5721 17.6429C29.7168 18.0392 29.7781 18.4611 29.7518 18.8821C29.7256 19.3032 29.6125 19.7139 29.4198 20.0892C29.2328 20.4637 28.9696 20.7952 28.6468 21.0618C28.3241 21.3285 27.9489 21.525 27.5458 21.638C27.1426 21.751 26.7204 21.7781 26.306 21.7181C25.8917 21.6581 25.4945 21.5121 25.14 21.2894C24.6182 21.0001 24.1985 20.5565 23.9388 20.0193C23.6792 19.4822 23.5923 18.8779 23.6898 18.2894C23.7495 17.7228 23.9694 17.1849 24.3236 16.7386C24.6778 16.2923 25.1516 15.9561 25.6898 15.7693C25.8598 15.6993 26.1 15.5495 26.1 15.4295C26.1 14.7095 26.1 13.9993 26.1 13.2493H11.0399C11.0399 13.8793 11.0399 14.4594 11.0399 15.0394C11.0208 15.128 11.0192 15.2197 11.0355 15.3089C11.0518 15.3981 11.0859 15.4832 11.1351 15.5594C11.1844 15.6355 11.248 15.7012 11.3226 15.7527C11.3973 15.8042 11.481 15.8402 11.5697 15.8592C11.9387 16.0046 12.2754 16.2221 12.5599 16.4984C12.8445 16.7746 13.0717 17.1045 13.2279 17.4691C13.3841 17.8336 13.4663 18.2253 13.4701 18.6219C13.4739 19.0185 13.3991 19.4121 13.2499 19.7796C13.1022 20.1568 12.8811 20.5007 12.5995 20.7918C12.3178 21.0829 11.9813 21.3149 11.6093 21.4749C11.2372 21.6349 10.837 21.7198 10.432 21.7239C10.027 21.7281 9.62518 21.6516 9.24988 21.4993C8.67037 21.27 8.17453 20.8699 7.828 20.3519C7.48147 19.8339 7.30072 19.2226 7.30993 18.5994C7.32788 17.9684 7.5372 17.3575 7.91052 16.8484C8.28384 16.3394 8.80332 15.9561 9.39978 15.7493C9.56978 15.6893 9.8097 15.5192 9.8197 15.3792C9.8197 14.6792 9.8197 13.9796 9.8197 13.2396C8.9997 13.2396 8.21005 13.2396 7.43005 13.2396C6.38822 13.323 5.40822 13.7686 4.66101 14.4993C3.91379 15.2301 3.44628 16.1998 3.33972 17.2396C3.16972 18.7696 3.05003 20.3194 2.91003 21.8494C2.61003 25.0228 2.31682 28.1858 2.03015 31.3392C1.73015 34.5392 1.40003 37.7293 1.16003 40.9393C1.07387 41.5992 1.13525 42.2704 1.34021 42.9036C1.54516 43.5368 1.88856 44.1161 2.34509 44.6004C2.80162 45.0847 3.35984 45.4615 3.97986 45.7034C4.59987 45.9454 5.26618 46.0464 5.93005 45.9993H18.7899L18.83 45.9793ZM9.82995 12.0496V9.44952C9.79929 7.18058 10.6542 4.98886 12.2133 3.34015C13.7723 1.69143 15.9129 0.71552 18.1801 0.619445C20.4885 0.532752 22.7372 1.36345 24.4349 2.92999C26.1327 4.49654 27.1413 6.67138 27.2401 8.97931C27.2401 9.97931 27.2401 10.9796 27.2401 12.0496C27.9201 12.0496 28.5601 12.0496 29.2401 12.0496C30.1115 12.0407 30.973 12.2336 31.7572 12.6136C32.5414 12.9936 33.2271 13.5501 33.7601 14.2396C34.5392 15.2965 34.9755 16.5666 35.0101 17.8792C35.2001 20.1692 35.42 22.4596 35.64 24.8196H44.64C45.8 24.8196 46.3097 25.3293 46.3197 26.4793V29.7796C46.3197 30.8596 45.9301 31.2993 44.7801 31.4793V44.6893C44.8262 45.0249 44.7941 45.3666 44.6864 45.6878C44.5787 46.009 44.3981 46.3013 44.1591 46.5413C43.92 46.7813 43.6287 46.9626 43.308 47.0716C42.9872 47.1806 42.6457 47.214 42.3099 47.1693H6.03991C4.5469 47.2598 3.07877 46.7569 1.95495 45.7698C0.831138 44.7828 0.142689 43.3915 0.0399142 41.8992C0.000673449 40.8526 0.0611199 39.8046 0.22009 38.7693C0.54009 35.1593 0.88009 31.5595 1.22009 27.9495C1.56009 24.3395 1.88009 20.6295 2.22009 16.9495C2.39838 15.5971 3.05885 14.3545 4.08044 13.4505C5.10203 12.5465 6.41607 12.042 7.78015 12.0296C8.44015 12.0296 9.10972 12.0296 9.83972 12.0296" fill="white"/>
</svg>
