<svg width="54" height="47" viewBox="0 0 54 47" fill="none" xmlns="http://www.w3.org/2000/svg">
<path d="M45.3296 28.1099C45.4196 28.4499 45.4693 28.7501 45.5693 29.0401C45.5693 29.1501 45.7496 29.3198 45.8496 29.3198C46.8496 29.3198 47.8495 29.3198 48.9395 29.3198V28.0996L45.3296 28.1099ZM47.6597 17.5796H37.9897V19.1699H47.6597V17.5796ZM47.6597 31.2197H45.7896V41.6099H47.6294L47.6597 31.2197ZM37.9697 15.6499H47.6597V13.4297H37.9697V15.6499ZM28.6797 28.1299H4.43945V29.2998H28.3696C28.4796 28.9098 28.5697 28.5399 28.6797 28.1299ZM37.9595 22.1797C39.2122 22.3273 40.4194 22.7401 41.5005 23.3902C42.5815 24.0402 43.5117 24.9125 44.2295 25.9497C44.3195 26.0697 44.4794 26.2197 44.6094 26.2197C45.6094 26.2197 46.6094 26.2197 47.6094 26.2197V21.0796H37.9194L37.9595 22.1797ZM34.5298 41.5996H39.4795V31.1997H34.5298V41.5996ZM1.85938 44.96H51.4795V43.52H1.85938V44.96ZM41.3594 41.5899H43.9297V40.9199C43.9297 37.5999 43.9297 34.2897 43.9297 30.9697C43.9538 29.1456 43.2556 27.3861 41.9873 26.0747C40.719 24.7634 38.9836 24.0065 37.1597 23.9697C35.3364 23.9429 33.5768 24.6391 32.2651 25.9058C30.9535 27.1725 30.1965 28.9069 30.1597 30.73V40.9097C30.1597 41.1297 30.1597 41.3499 30.1597 41.5899H32.7095V30.6499C32.7095 29.5699 32.9598 29.3198 34.0098 29.3198C36.0098 29.3198 38.0396 29.3198 40.0996 29.3198C41.1596 29.3198 41.4097 29.5799 41.4097 30.6499V41.5698L41.3594 41.5899ZM28.1997 31.21H5.70947V41.6099H28.1997V31.21ZM48.9395 10.0298H35.9395C35.671 10.0367 35.4028 10.0134 35.1396 9.95998C34.6981 9.85764 34.2957 9.6289 33.9814 9.30226C33.6672 8.97562 33.4548 8.56481 33.3696 8.11965C33.1288 6.88934 32.5507 5.75021 31.6997 4.82961C30.8712 3.92543 29.8085 3.26879 28.6294 2.93166C27.4503 2.59452 26.2008 2.59039 25.0195 2.91994C23.8293 3.17503 22.7374 3.76692 21.874 4.62502C21.0106 5.48312 20.4119 6.57111 20.1494 7.75978C19.6794 9.48978 19.0097 10.0298 17.2197 10.0298H4.45947V11.52H48.9697L48.9395 10.0298ZM5.68945 26.21H6.04932C13.7626 26.21 21.4797 26.21 29.1997 26.21C29.3229 26.197 29.442 26.1593 29.5503 26.0991C29.6585 26.039 29.7535 25.9576 29.8296 25.8599C30.6608 24.6558 31.796 23.6932 33.1196 23.0698C34.0496 22.6498 35.0493 22.3898 36.0493 22.0698V13.4497H5.68945V26.21ZM49.5796 26.21C50.6596 26.41 50.8096 26.5997 50.8096 27.6997V29.7998C50.8096 30.8498 50.6393 31.05 49.5693 31.25V41.6597H52.0796C53.0796 41.6597 53.3496 41.93 53.3496 42.96C53.3496 43.99 53.3496 44.7597 53.3496 45.6597C53.3496 46.5597 53.0496 46.8599 52.1396 46.8599H1.44971C0.229707 46.8599 0.00976562 46.6397 0.00976562 45.4297C0.00976562 44.5297 0.00976562 43.63 0.00976562 42.73C0.00976562 42 0.33957 41.6697 1.05957 41.6597C1.94957 41.6597 2.84979 41.6597 3.77979 41.6597V31.3496C3.41979 31.1596 2.95979 31.06 2.77979 30.77C2.60685 30.3949 2.53098 29.982 2.55957 29.5698C2.55957 28.9598 2.55957 28.34 2.55957 27.73C2.55957 26.57 2.68932 26.3997 3.79932 26.1797V13.5098C2.57932 13.1498 2.55957 13.1201 2.55957 11.7901V9.54982C2.55957 8.48982 2.83939 8.20998 3.87939 8.20998C8.35939 8.20998 12.8796 8.20998 17.3296 8.20998C17.446 8.23293 17.566 8.2309 17.6816 8.20412C17.7972 8.17734 17.906 8.12602 18.0005 8.05422C18.095 7.98241 18.1727 7.89183 18.2295 7.78762C18.2862 7.6834 18.3205 7.56805 18.3296 7.44972C18.7811 5.57172 19.8487 3.89921 21.3623 2.69924C22.8759 1.49926 24.7482 0.840915 26.6797 0.829607C28.6219 0.825706 30.5085 1.4774 32.0347 2.67873C33.5608 3.88006 34.637 5.56089 35.0894 7.44972C35.0999 7.56745 35.1352 7.68174 35.1924 7.78517C35.2496 7.8886 35.3278 7.97879 35.4219 8.05031C35.516 8.12183 35.6238 8.17327 35.7388 8.2007C35.8537 8.22813 35.9731 8.23131 36.0894 8.20998C40.5794 8.20998 45.0896 8.20998 49.5396 8.20998C50.5396 8.20998 50.8594 8.48982 50.8594 9.54982V12.02C50.8594 13.09 50.6994 13.2697 49.6294 13.4697L49.5796 26.21Z" fill="white"/>
</svg>
