<svg width="47" height="41" viewBox="0 0 47 41" fill="none" xmlns="http://www.w3.org/2000/svg">
<path d="M45.0703 16.2002C43.9603 15.7302 43.9504 15.74 42.9604 16.29C42.5901 16.4919 42.197 16.6498 41.79 16.7603C40.7886 17.0057 39.7343 16.9141 38.79 16.5C38.79 17.75 38.79 18.9399 38.79 20.1299C38.7773 20.2018 38.7797 20.2757 38.7969 20.3467C38.814 20.4177 38.8455 20.4848 38.8896 20.543C38.9338 20.6012 38.9895 20.6494 39.0532 20.6851C39.117 20.7207 39.1875 20.7429 39.2602 20.75C41.0602 21.29 42.8501 21.8702 44.6401 22.4302L45.0903 22.54L45.0703 16.2002ZM6.81005 23.5601C5.42005 24.2601 4.10021 24.9899 2.72021 25.6099C2.27173 25.7513 1.89281 26.0556 1.65771 26.4629C1.4226 26.8702 1.34837 27.351 1.45019 27.8101C1.49997 28.5659 1.49997 29.3242 1.45019 30.0801L11.9101 28.6602V25.8003C10.9332 26.1691 9.85072 26.1412 8.89403 25.7227C7.93734 25.3041 7.18219 24.5279 6.79003 23.5601M13.4101 20.3301L15.04 19.3301C15.1149 19.2692 15.2025 19.2253 15.2959 19.2012C15.3893 19.1771 15.4866 19.1733 15.5815 19.1904C15.6765 19.2075 15.7665 19.2452 15.8457 19.3003C15.9249 19.3554 15.9911 19.4271 16.04 19.5103C16.0969 19.5895 16.136 19.6801 16.1548 19.7759C16.1735 19.8716 16.1717 19.9701 16.1489 20.0649C16.1262 20.1598 16.0831 20.2484 16.0229 20.3252C15.9628 20.402 15.8869 20.4654 15.8003 20.5103C15.4103 20.7703 15.0101 21.0103 14.6201 21.2603C13.3201 22.0803 13.3101 22.0799 13.3901 23.6299C13.4058 23.7594 13.4499 23.884 13.519 23.9946C13.5882 24.1052 13.6805 24.1992 13.79 24.27C14.2375 24.5078 14.7508 24.5925 15.251 24.5112C15.7512 24.43 16.2108 24.1871 16.56 23.8198C16.9378 23.4451 17.173 22.95 17.2241 22.4204C17.2752 21.8908 17.1394 21.36 16.8403 20.9199C16.7404 20.8185 16.6634 20.6971 16.6142 20.5635C16.5651 20.4298 16.5448 20.287 16.5552 20.145C16.5656 20.003 16.6062 19.8648 16.6743 19.7397C16.7424 19.6147 16.8365 19.5057 16.9502 19.4199C17.1866 19.1791 17.3423 18.8708 17.396 18.5376C17.4497 18.2044 17.3992 17.863 17.2505 17.5601C17.1184 17.2286 16.8912 16.9436 16.5976 16.7407C16.3041 16.5379 15.9569 16.4261 15.6001 16.4199C14.6001 16.3699 14.5405 16.3099 14.4805 15.3599C14.4553 14.8909 14.2536 14.449 13.916 14.1226C13.5784 13.7961 13.1297 13.6095 12.6601 13.6001C12.1911 13.5962 11.7384 13.7704 11.3931 14.0879C11.0477 14.4054 10.8358 14.8423 10.8003 15.3101C10.7103 16.3101 10.7104 16.3099 9.71044 16.4199C9.38011 16.4355 9.06011 16.5409 8.78515 16.7246C8.51018 16.9083 8.29026 17.1637 8.1494 17.4629C8.00855 17.7621 7.95224 18.0939 7.98583 18.4229C8.01942 18.7518 8.1419 19.0655 8.34032 19.3301C8.45318 19.4331 8.54417 19.5577 8.60839 19.6963C8.67261 19.8349 8.70876 19.985 8.71435 20.1377C8.71993 20.2904 8.69502 20.4425 8.6411 20.5855C8.58718 20.7284 8.50541 20.8593 8.40038 20.9702C8.11691 21.4079 7.99179 21.9296 8.04638 22.4482C8.10097 22.9669 8.33179 23.4507 8.70019 23.8198C9.0563 24.1823 9.51796 24.4229 10.019 24.5073C10.5201 24.5917 11.035 24.5158 11.4902 24.29C11.6187 24.2379 11.7296 24.1501 11.81 24.0371C11.8905 23.9242 11.9375 23.7908 11.9448 23.6523C11.9522 23.5139 11.9196 23.3762 11.8516 23.2554C11.7835 23.1346 11.6823 23.0357 11.56 22.9702C10.92 22.5502 10.27 22.1302 9.56005 21.7402C9.13005 21.4702 8.90038 21.1299 9.15038 20.6299C9.40038 20.1299 9.81034 20.18 10.3603 20.52L11.8701 21.4702V20.3301C11.8701 19.4301 12.06 19.0601 12.56 19.0801C13.28 19.0801 13.3201 19.6703 13.3501 20.3003M37.2202 20.21V16.52C33.8902 17.25 32.5202 16.6402 30.9702 13.7002C26.5702 13.7002 22.3401 14.5 18.5801 16.96C18.6635 17.2897 18.7305 17.6235 18.7803 17.96C18.8005 18.3097 18.8005 18.6606 18.7803 19.0103C24.9459 18.3474 31.1797 18.7462 37.2104 20.1899M38.6904 10.4502C39.5104 9.9302 40.2204 9.45004 40.9404 9.04004C41.0208 8.97542 41.1145 8.92984 41.2148 8.90625C41.3152 8.88266 41.4198 8.88175 41.5205 8.90381C41.6212 8.92588 41.7155 8.9703 41.7969 9.0337C41.8782 9.09709 41.9442 9.17773 41.9902 9.27002C42.044 9.35234 42.0797 9.4453 42.0947 9.54248C42.1097 9.63967 42.1037 9.73881 42.0771 9.8335C42.0506 9.92819 42.0042 10.016 41.9409 10.0913C41.8776 10.1666 41.7992 10.2276 41.7104 10.27C41.2978 10.5931 40.8519 10.8714 40.3804 11.1001C39.745 11.2948 39.2105 11.7298 38.8911 12.3125C38.5717 12.8953 38.4927 13.5799 38.6704 14.2202C38.6804 14.3835 38.73 14.5417 38.8154 14.6812C38.9009 14.8206 39.0193 14.9369 39.1601 15.02C39.7375 15.3433 40.4058 15.4665 41.0605 15.3706C41.7153 15.2748 42.3198 14.9654 42.7803 14.4902C43.2578 14.0041 43.5554 13.3699 43.6245 12.6919C43.6936 12.0139 43.5299 11.3327 43.1601 10.7603C42.6601 9.97026 42.6602 9.98026 43.2602 9.26026C43.5682 8.92004 43.7681 8.49567 43.834 8.04151C43.8999 7.58734 43.829 7.12368 43.6304 6.70996C43.4477 6.28891 43.1438 5.93214 42.7573 5.68457C42.3708 5.43701 41.9193 5.30972 41.4604 5.31983C40.4604 5.31983 40.4001 5.23002 40.3501 4.27002C40.3371 3.64659 40.0809 3.05291 39.6362 2.61573C39.1916 2.17855 38.5938 1.93265 37.9702 1.93018C37.3587 1.93232 36.7718 2.17079 36.332 2.59571C35.8922 3.02062 35.6336 3.59886 35.6103 4.20996C35.6103 5.20996 35.4902 5.25983 34.4702 5.31983C34.0378 5.3372 33.6197 5.47839 33.2651 5.72657C32.9106 5.97474 32.6345 6.31986 32.4702 6.72022C32.2846 7.1045 32.2104 7.53324 32.2563 7.95752C32.3023 8.38181 32.4669 8.7845 32.7305 9.12012C33.3305 9.93012 33.34 9.93008 32.79 10.8301C32.4403 11.3916 32.2864 12.0531 32.3516 12.7114C32.4167 13.3697 32.6974 13.9881 33.1504 14.4702C33.6048 14.9535 34.2063 15.2725 34.8613 15.3774C35.5163 15.4824 36.1879 15.3674 36.7705 15.0503C36.9409 14.9751 37.0867 14.8535 37.1919 14.6997C37.297 14.546 37.3569 14.3658 37.3652 14.1797C37.3735 13.9936 37.3298 13.809 37.2388 13.6465C37.1477 13.484 37.0131 13.3504 36.8501 13.2603L34.4502 11.7402C33.8902 11.3802 33.7405 11.0099 34.0005 10.6099C34.2605 10.2099 34.6702 10.1703 35.2202 10.5103L37.2803 11.8003V9.75C37.2803 9.26 37.4205 8.86008 38.0005 8.83008C38.5805 8.80008 38.7205 9.11998 38.7305 9.72998C38.7305 9.92998 38.7305 10.13 38.7305 10.46M26.1103 12.5303C25.2403 12.1703 24.4804 11.8403 23.7104 11.5303C16.7385 8.78027 8.9822 8.78027 2.01024 11.5303C1.8189 11.5776 1.65135 11.693 1.53905 11.855C1.42676 12.017 1.37758 12.2144 1.40038 12.4102C1.40038 16.2702 1.40038 20.13 1.40038 23.98C1.40038 24.18 1.40038 24.3703 1.40038 24.5503C2.79038 23.8703 4.10021 23.1603 5.47021 22.5503C6.14021 22.2603 6.6804 21.9902 6.6704 21.1602C6.67314 20.9767 6.73244 20.7983 6.84032 20.6499C7.07032 20.3199 6.97032 20.05 6.84032 19.71C6.62445 19.2833 6.50542 18.8144 6.49169 18.3364C6.47796 17.8584 6.56971 17.3832 6.76073 16.9448C6.95175 16.5064 7.23723 16.1157 7.59667 15.8003C7.95611 15.4849 8.38082 15.2525 8.84032 15.1201C9.00898 15.0812 9.16259 14.9943 9.28319 14.8701C9.4038 14.746 9.48647 14.5896 9.5205 14.4199C9.69302 13.8119 10.0465 13.2711 10.5342 12.8691C11.0219 12.4672 11.6207 12.2231 12.2505 12.1699C12.8419 12.0425 13.4585 12.1099 14.0083 12.3623C14.5581 12.6147 15.0114 13.0383 15.3003 13.5698C15.4989 14.025 15.7857 14.4365 16.1445 14.7798C16.5033 15.1231 16.9267 15.3914 17.3901 15.5698C17.5114 15.641 17.6494 15.6787 17.79 15.6787C17.9307 15.6787 18.0691 15.641 18.1904 15.5698C19.5904 14.8798 20.9902 14.1498 22.4502 13.5698C23.6614 13.1707 24.8931 12.8368 26.1401 12.5698M1.45019 31.6699C1.45019 33.5399 1.45019 35.3399 1.45019 37.1299C1.45019 38.6799 2.1104 39.3301 3.6704 39.3301H37.5503C37.3903 38.9701 37.2704 38.6701 37.1304 38.3901C35.6658 35.5832 33.2208 33.4122 30.2602 32.29C26.8004 30.9188 23.1215 30.1838 19.4004 30.1201C14.7171 29.9383 10.0273 30.2232 5.40038 30.9702C4.09038 31.1802 2.79044 31.4299 1.46044 31.6699M13.4604 28.6699H13.7305C16.1805 28.6699 18.63 28.6703 21.06 28.8003C24.1938 28.9412 27.2844 29.5896 30.2104 30.7202C34.2104 32.3002 37.4203 34.8302 39.0503 38.9902C39.1055 39.0826 39.1809 39.1608 39.271 39.2197C39.3611 39.2786 39.4635 39.3165 39.5703 39.3301C40.7403 39.3301 41.9103 39.3301 43.0903 39.3301C43.3599 39.3584 43.6322 39.3259 43.8877 39.2354C44.1432 39.1448 44.3757 38.9988 44.5674 38.8071C44.7591 38.6155 44.9051 38.383 44.9956 38.1274C45.0861 37.8719 45.1186 37.5997 45.0903 37.3301C45.0903 33.1301 45.0903 28.9302 45.0903 24.7202C45.1163 24.5441 45.072 24.3647 44.9673 24.2207C44.8626 24.0767 44.7058 23.9797 44.5303 23.9502C42.2803 23.2702 40.0402 22.4901 37.7602 21.8901C31.8664 20.3435 25.7446 19.856 19.6802 20.4502C19.2502 20.4502 18.8201 20.5699 18.3701 20.6299C18.6873 21.3298 18.7857 22.1095 18.6518 22.8662C18.518 23.6229 18.1581 24.3215 17.6201 24.8701C17.0914 25.4244 16.4107 25.81 15.6636 25.979C14.9164 26.148 14.1362 26.0926 13.4204 25.8198L13.4604 28.6699ZM44.7705 14.5698C45.1205 14.6798 45.4605 14.7999 45.7705 14.8799C46.0032 14.9147 46.2134 15.0386 46.3569 15.2251C46.5005 15.4116 46.5659 15.646 46.54 15.8799C46.54 19.6199 46.54 23.3601 46.54 27.1001V37.3101C46.5784 37.782 46.5134 38.2566 46.3491 38.7007C46.1848 39.1448 45.9256 39.5475 45.5893 39.8809C45.2531 40.2142 44.8478 40.4704 44.4023 40.6309C43.9569 40.7913 43.4818 40.8524 43.0102 40.8101H3.66015C3.16875 40.8672 2.67106 40.8128 2.2036 40.6509C1.73615 40.489 1.31121 40.2239 0.96044 39.875C0.60967 39.5262 0.341722 39.1023 0.177237 38.6357C0.0127513 38.1692 -0.0441908 37.6719 0.0102444 37.1802C0.0102444 28.8802 0.0102444 20.5767 0.0102444 12.27C0.0102444 10.75 0.0100491 10.9001 1.31005 10.3501C8.09837 7.5323 15.6852 7.30442 22.6304 9.70996C24.6304 10.35 26.5305 11.3402 28.4805 12.1602C28.7559 12.2649 29.046 12.3253 29.3403 12.3398C29.8403 12.3398 30.3403 12.3398 30.7803 12.3398C31.0503 11.5698 31.3103 10.9002 31.5303 10.2202C31.5429 10.0532 31.4971 9.88678 31.4004 9.75C31.084 9.22777 30.8966 8.63789 30.854 8.02881C30.8114 7.41973 30.9147 6.80925 31.1553 6.24805C31.3958 5.68685 31.7664 5.19095 32.2368 4.80176C32.7073 4.41257 33.264 4.14134 33.8603 4.01026C33.9669 3.96517 34.0629 3.89787 34.1421 3.81348C34.2213 3.72909 34.282 3.62926 34.3203 3.52002C34.5231 2.66499 35.0085 1.90341 35.6982 1.35889C36.388 0.814374 37.2414 0.518837 38.1201 0.520023C38.9834 0.538832 39.8159 0.8438 40.4873 1.38672C41.1587 1.92964 41.631 2.67982 41.8301 3.52002C41.8671 3.61975 41.9259 3.70983 42.0019 3.78418C42.078 3.85853 42.1699 3.91548 42.2705 3.9502C42.8955 4.06641 43.4814 4.33568 43.9766 4.73438C44.4717 5.13308 44.8601 5.64856 45.1069 6.23438C45.3537 6.8202 45.4511 7.45802 45.3906 8.09082C45.3301 8.72363 45.1136 9.33146 44.7602 9.85987C44.6793 9.98779 44.6439 10.1395 44.6601 10.29C45.3201 12.55 45.3305 12.55 44.7505 14.52" fill="white"/>
</svg>
