<svg width="53" height="33" viewBox="0 0 53 33" fill="none" xmlns="http://www.w3.org/2000/svg">
<path d="M15.3296 24.0995H27.2598V22.0097H15.3696L15.3296 24.0995ZM27.23 16.6098H15.3496V20.3696H27.2598L27.23 16.6098ZM27.23 25.7397H15.3398V30.6699C16.3203 30.8115 17.3205 30.6873 18.2368 30.311C19.1531 29.9346 19.952 29.3196 20.5498 28.5297C21.0698 27.9097 21.4598 27.9597 22.0298 28.5297C22.6545 29.1598 23.3488 29.7169 24.0996 30.1899C25.0524 30.7178 26.1628 30.888 27.23 30.6699V25.7397ZM23.7197 14.9999C23.7197 12.8799 23.7197 10.8195 23.7197 8.76947C23.6657 7.84606 23.2572 6.97922 22.5796 6.34954C22.0281 5.7493 21.3065 5.33197 20.5112 5.15325C19.7159 4.97454 18.8852 5.04295 18.1299 5.34954C17.2989 5.63006 16.5797 6.17032 16.0791 6.89056C15.5785 7.6108 15.3228 8.47285 15.3496 9.34954C15.2896 11.1795 15.3496 13.0198 15.3496 14.8598C15.3629 14.9315 15.3831 15.0018 15.4097 15.0698L23.7197 14.9999ZM28.7998 30.0595L28.9297 30.1498L30.2695 29.1498C30.4411 29.0119 30.5764 28.834 30.6636 28.6318C30.7507 28.4296 30.7871 28.2091 30.7695 27.9897C30.7695 22.8697 30.7695 17.7396 30.7695 12.6196C30.7695 11.5196 30.7695 10.4095 30.7695 9.3095C30.7711 8.4164 30.9799 7.53575 31.3789 6.73675C31.778 5.93775 32.3567 5.24225 33.0698 4.70452C33.7829 4.1668 34.6108 3.80157 35.4888 3.63763C36.3667 3.47369 37.2708 3.51556 38.1299 3.7597C39.5015 4.15841 40.6805 5.04369 41.4463 6.24945C42.2121 7.45521 42.5118 8.89851 42.2896 10.3095C42.2859 10.4051 42.263 10.4991 42.2217 10.5854C42.1804 10.6717 42.122 10.7487 42.0498 10.8115C41.9777 10.8742 41.8934 10.9217 41.8022 10.9506C41.7111 10.9796 41.6147 10.9895 41.5195 10.9799C41.4238 10.9853 41.3284 10.971 41.2383 10.9384C41.1481 10.9058 41.0652 10.8554 40.9951 10.79C40.925 10.7246 40.8688 10.6457 40.8301 10.558C40.7913 10.4704 40.7707 10.3756 40.7695 10.2797C40.7695 9.95972 40.7695 9.62972 40.7695 9.27972C40.7716 8.22928 40.3811 7.216 39.6743 6.4389C38.9675 5.6618 37.9956 5.17683 36.9497 5.07952C35.8664 4.96994 34.7834 5.29185 33.9355 5.97503C33.0877 6.65821 32.5433 7.64804 32.4199 8.72991C32.2699 10.2799 32.3496 11.8499 32.3296 13.4199V14.9697H40.7695C40.7695 14.4697 40.7695 13.9695 40.7695 13.5395C40.7695 12.8995 41.0398 12.5395 41.5298 12.5395C42.0198 12.5395 42.3096 12.8995 42.3096 13.5395C42.3096 14.1795 42.3096 14.5399 42.3096 14.9999H44.2598C44.2598 12.9299 44.3498 10.8798 44.2598 8.83978C44.1889 7.67047 43.8534 6.53251 43.2788 5.51165C42.7042 4.4908 41.9052 3.61348 40.9424 2.94622C39.9795 2.27897 38.8778 1.83917 37.7202 1.6596C36.5626 1.48003 35.3795 1.5654 34.2598 1.9096C32.6724 2.41151 31.2885 3.41048 30.3125 4.75921C29.3365 6.10794 28.8203 7.73514 28.8398 9.39984V30.0795L28.7998 30.0595ZM0 28.6098C0.53 27.8898 0.999805 27.8798 1.5498 28.6098C2.03264 29.2461 2.64951 29.7681 3.35693 30.1391C4.06436 30.5101 4.84505 30.721 5.64307 30.7563C6.44108 30.7916 7.23718 30.6507 7.97461 30.3437C8.71204 30.0367 9.3725 29.5711 9.90967 28.9799C10.1049 28.7539 10.218 28.4683 10.23 28.1699C10.23 26.5199 10.23 24.8697 10.23 23.2197C10.23 23.0597 10.23 22.9097 10.23 22.7597C10.231 22.6555 10.2534 22.5526 10.2959 22.4575C10.3384 22.3623 10.3997 22.2768 10.4766 22.2065C10.5535 22.1361 10.6441 22.0826 10.7427 22.0488C10.8412 22.0149 10.9459 22.0015 11.0498 22.0097C11.1505 22.0092 11.25 22.0298 11.3423 22.0702C11.4345 22.1107 11.5176 22.1701 11.5854 22.2446C11.6533 22.319 11.7046 22.4073 11.7363 22.5029C11.7681 22.5985 11.7793 22.6995 11.7695 22.7997C11.7695 23.7097 11.7695 24.6197 11.7695 25.5297C11.8217 26.1954 11.8217 26.8641 11.7695 27.5297C11.7052 27.9632 11.779 28.4059 11.98 28.7953C12.181 29.1847 12.499 29.501 12.8896 29.6996C13.1396 29.8696 13.4 30.0197 13.75 30.2397V29.5195C13.75 22.9328 13.75 16.3464 13.75 9.7597C13.6745 8.57237 13.966 7.3905 14.585 6.37445C15.2039 5.35839 16.1203 4.55712 17.21 4.07952C18.064 3.7004 18.9975 3.53609 19.9297 3.60052C20.8619 3.66495 21.7644 3.95614 22.5581 4.44915C23.3519 4.94217 24.013 5.62208 24.4839 6.42913C24.9548 7.23619 25.2211 8.14592 25.2598 9.07952C25.3098 10.8695 25.2598 12.6599 25.2598 14.4399V15.0395H27.1899C27.1899 14.9095 27.1899 14.7598 27.1899 14.6098C27.1899 12.8798 27.1899 11.1398 27.1899 9.39984C27.1953 7.55097 26.5419 5.76053 25.3472 4.34954C24.1524 2.93856 22.4944 1.99907 20.6699 1.69964C19.6369 1.53504 18.5812 1.58285 17.5674 1.84027C16.5535 2.09769 15.6028 2.55926 14.7734 3.19671C13.9441 3.83417 13.2532 4.63427 12.7437 5.54779C12.2341 6.4613 11.9162 7.46913 11.8096 8.5097C11.6896 10.1997 11.7497 11.9098 11.7397 13.6098C11.7397 15.4698 11.7397 17.3296 11.7397 19.1796C11.7397 19.3196 11.7397 19.4595 11.7397 19.5995C11.7397 20.1395 11.4397 20.4499 10.9897 20.4599C10.5397 20.4699 10.2097 20.1395 10.1997 19.5795C10.1997 18.8095 10.1997 18.0297 10.1997 17.2597V16.6196H1.19971C1.02652 16.6296 0.852877 16.6296 0.679688 16.6196C0.506362 16.6093 0.343607 16.5336 0.224609 16.4072C0.105612 16.2807 0.0392501 16.1135 0.0395508 15.9399C0.00930525 15.7667 0.0464309 15.5886 0.143066 15.4418C0.239702 15.295 0.388582 15.1905 0.55957 15.1498C0.758799 15.0997 0.964738 15.0794 1.16992 15.0898H10.1699V14.4399C10.1699 12.4399 10.11 10.4397 10.25 8.5097C10.4365 6.16162 11.5203 3.97555 13.2764 2.4057C15.0324 0.835842 17.3255 0.00270201 19.6797 0.0795239C21.3685 0.106381 23.0166 0.60222 24.4399 1.51165C25.8632 2.42109 27.0058 3.70869 27.7397 5.22991L27.9297 5.59954C28.0197 5.43954 28.0997 5.31964 28.1597 5.19964C29.0539 3.39033 30.5147 1.92253 32.3198 1.01995C34.125 0.117374 36.1757 -0.170562 38.1597 0.199641C40.0961 0.56875 41.8661 1.54171 43.2153 2.97894C44.5645 4.41616 45.4238 6.24379 45.6699 8.19964C45.74 8.96755 45.7699 9.73866 45.7598 10.5097C45.7598 11.9997 45.7598 13.5097 45.7598 15.0297H46.3496C48.1296 15.0297 49.8999 15.0297 51.6699 15.0297C51.8699 15.0297 52.1398 15.0298 52.2598 15.1098C52.4989 15.3054 52.6706 15.571 52.75 15.8696C52.7554 15.9566 52.7429 16.0437 52.7139 16.1259C52.6849 16.2081 52.6398 16.2837 52.5811 16.3481C52.5223 16.4125 52.4513 16.4646 52.3721 16.5009C52.2928 16.5372 52.2068 16.557 52.1196 16.5595C51.9298 16.5695 51.7397 16.5695 51.5498 16.5595H32.2896C32.2896 16.7895 32.2896 16.9596 32.2896 17.1196C32.2896 20.7896 32.2896 24.4496 32.2896 28.1196C32.2996 28.434 32.4203 28.735 32.6299 28.9697C33.1656 29.5567 33.8235 30.0192 34.5571 30.3246C35.2908 30.6301 36.0824 30.7711 36.8765 30.7377C37.6705 30.7044 38.4474 30.4977 39.1528 30.1318C39.8583 29.7658 40.4754 29.2495 40.96 28.6196C41.57 27.8796 41.9596 27.8896 42.5596 28.6196C43.0675 29.2694 43.7157 29.7965 44.4556 30.1611C45.1954 30.5256 46.0082 30.7183 46.833 30.725C47.6578 30.7318 48.4735 30.5521 49.2192 30.1996C49.965 29.8472 50.6212 29.3314 51.1396 28.6899C51.2096 28.6199 51.2698 28.5299 51.3398 28.4599C51.3977 28.3645 51.4752 28.2825 51.5674 28.2197C51.6596 28.1568 51.7641 28.1146 51.874 28.0956C51.984 28.0767 52.0967 28.0815 52.2046 28.1098C52.3125 28.1381 52.4135 28.1892 52.5 28.2597C52.585 28.3276 52.6544 28.4129 52.7041 28.5097C52.7538 28.6065 52.7824 28.7126 52.7881 28.8212C52.7938 28.9299 52.7762 29.0386 52.7368 29.1401C52.6974 29.2415 52.6371 29.3332 52.5596 29.4096C51.5401 30.7732 50.0694 31.7303 48.4097 32.1098C47.3147 32.3657 46.1739 32.348 45.0874 32.0585C44.0009 31.769 43.0021 31.2164 42.1797 30.4496L41.7598 30.0595C41.0969 30.7577 40.3002 31.315 39.417 31.6982C38.5338 32.0813 37.5823 32.2824 36.6196 32.2895C35.6641 32.2806 34.7204 32.0796 33.8442 31.6982C32.968 31.3168 32.1771 30.7631 31.5195 30.0698C30.8579 30.7682 30.061 31.3244 29.1772 31.7045C28.2935 32.0847 27.3419 32.2807 26.3799 32.2807C25.4179 32.2807 24.4658 32.0847 23.582 31.7045C22.6983 31.3244 21.9013 30.7682 21.2397 30.0698C20.5802 30.7695 19.7856 31.328 18.9038 31.7114C18.022 32.0947 17.0714 32.2948 16.1099 32.2997C15.1495 32.291 14.2007 32.088 13.3208 31.7031C12.4409 31.3181 11.648 30.7589 10.9897 30.0595C10.1076 30.9839 9.00703 31.6717 7.78955 32.0595C6.3894 32.4487 4.90406 32.3998 3.53271 31.9189C2.16137 31.4379 0.96996 30.5481 0.119629 29.3696C0.119629 29.2996 0.00996094 29.2396 -0.0400391 29.1796L0 28.6098Z" fill="white"/>
</svg>
