<svg width="51" height="51" viewBox="0 0 51 51" fill="none" xmlns="http://www.w3.org/2000/svg">
<path d="M20.3193 2.4503C19.8929 2.28357 19.4356 2.21093 18.9785 2.2379C18.5214 2.26487 18.0757 2.39084 17.6719 2.60655C17.268 2.82227 16.9157 3.123 16.6391 3.4879C16.3626 3.8528 16.1679 4.27318 16.0693 4.72032C15.3293 7.00032 15.3895 8.83017 17.7695 9.81017C17.4502 8.46788 17.5205 7.06261 17.9721 5.7589C18.4238 4.45518 19.238 3.30729 20.3193 2.4503ZM9.15965 17.65C9.4086 15.8742 10.2845 14.2462 11.6294 13.0602C12.3304 12.5516 13.1322 12.1995 13.9809 12.027C14.8296 11.8545 15.7054 11.8656 16.5493 12.0602C15.9618 11.3296 15.1848 10.7752 14.3027 10.4576C13.4206 10.1401 12.4676 10.0718 11.5493 10.2604C10.6493 10.437 9.83003 10.8976 9.21092 11.5743C8.59181 12.251 8.20549 13.108 8.10936 14.0201C7.90093 14.6597 7.88475 15.3465 8.06248 15.9952C8.24022 16.644 8.60408 17.226 9.10936 17.67M20.9795 27.7403C17.2595 23.8303 16.6295 19.4803 18.9795 14.7403C18.5134 14.6393 18.0281 14.6708 17.5791 14.8316C17.1301 14.9925 16.7353 15.276 16.4394 15.65C15.4864 16.6082 14.7845 17.7869 14.3955 19.0812C14.0065 20.3754 13.9426 21.7456 14.2095 23.0704C14.2995 23.9563 14.5784 24.8124 15.0268 25.5816C15.4753 26.3509 16.083 27.0155 16.8096 27.5304C17.3996 27.9722 18.1064 28.2311 18.8423 28.2755C19.5781 28.3199 20.3107 28.148 20.9497 27.7804M21.9497 9.31017C22.3148 9.44051 22.7048 9.48514 23.0898 9.44005C23.4749 9.39495 23.8443 9.26158 24.1694 9.0504C25.6036 7.98477 27.4005 7.52834 29.1694 7.78038C31.0552 8.07429 32.8028 8.94806 34.1694 10.2804C34.7194 10.7904 35.2398 11.3302 35.7798 11.8702C36.0228 11.1933 36.1296 10.4753 36.0947 9.75694C36.0598 9.03858 35.8836 8.33389 35.5762 7.6837C35.2687 7.03352 34.8363 6.45066 34.3032 5.96788C33.7701 5.4851 33.1471 5.11193 32.4697 4.87022C30.9915 4.4081 29.4229 4.31222 27.8994 4.59044C26.5734 4.74511 25.3167 5.26426 24.268 6.09044C23.2194 6.91662 22.4201 8.01715 21.9595 9.27013M27.8296 37.7003C27.875 37.7155 27.9243 37.7155 27.9697 37.7003C30.1897 37.3703 32.4196 37.0503 34.6396 36.7003C34.7796 36.7003 34.9697 36.4003 34.9897 36.2203C35.5962 31.5752 35.1727 26.8534 33.7495 22.3902C33.1168 20.2808 32.0653 18.3207 30.6582 16.6266C29.251 14.9325 27.5171 13.5394 25.5596 12.5304C24.0268 11.6567 22.2417 11.3322 20.4995 11.6105C20.0283 11.7503 19.5727 11.9376 19.1396 12.17C22.6096 12.93 23.7897 13.53 25.4297 15.67C26.0347 16.4524 26.5541 17.2972 26.9795 18.19C28.9795 22.4 29.1697 26.8803 28.7197 31.4103C28.4997 33.5103 28.1296 35.5803 27.8296 37.6803M25.3096 48.6202H45.7895C46.3395 48.6202 46.8894 48.6202 47.4394 48.6202C47.5805 48.6373 47.7238 48.6242 47.8594 48.5816C47.9949 48.5391 48.1196 48.4683 48.2256 48.3736C48.3315 48.279 48.416 48.1627 48.4736 48.0328C48.5312 47.903 48.5606 47.7623 48.5596 47.6202C48.6398 45.8756 48.5898 44.1274 48.4096 42.3902C48.3634 41.6696 48.1665 40.9667 47.832 40.3268C47.4975 39.6868 47.0325 39.1238 46.4673 38.6744C45.902 38.225 45.2492 37.899 44.5503 37.7174C43.8514 37.5358 43.1222 37.5028 42.4096 37.6202C40.6026 37.788 38.8086 38.0752 37.0395 38.4801C33.3399 39.4223 29.546 39.9456 25.7295 40.0401C22.7895 40.0401 19.8494 39.6603 16.9194 39.4503C13.7078 39.0894 10.4564 39.4306 7.38963 40.4503C4.38963 41.5503 2.23943 43.3505 2.18943 46.8805C2.18943 48.2005 2.46953 48.5904 3.78953 48.5904H25.3296M21.3296 15.0304C18.7696 19.4004 19.4795 23.5804 23.2695 26.7604C24.1195 27.4704 24.1095 28.1702 23.2695 28.8502C22.5854 29.4397 21.7833 29.8765 20.917 30.1315C20.0507 30.3864 19.1399 30.4536 18.2456 30.3287C17.3512 30.2038 16.4942 29.8894 15.7309 29.4068C14.9677 28.9242 14.3157 28.2848 13.8193 27.5304C12.5158 25.6336 11.8519 23.3703 11.9238 21.0699C11.9958 18.7695 12.8002 16.552 14.2197 14.7403L14.7095 14.15C14.1707 14.1382 13.6403 14.2843 13.1836 14.5704C12.7269 14.8565 12.364 15.2704 12.1396 15.7604C11.6966 16.8172 11.3616 17.9159 11.1396 19.0401C10.9196 20.1001 10.4396 20.4803 9.40965 20.1803C8.3599 19.8883 7.43409 19.2611 6.77342 18.3946C6.11275 17.5282 5.75322 16.4701 5.74949 15.3805C5.70001 13.9907 6.01381 12.6121 6.65965 11.3805C7.19382 10.2997 8.03204 9.39832 9.07127 8.78722C10.1105 8.17612 11.3056 7.88147 12.5097 7.94005H13.3896C13.3983 6.97288 13.4715 6.00773 13.6094 5.0504C14.0994 2.7404 15.2497 0.900048 17.6797 0.190049C18.5652 -0.0954112 19.516 -0.10674 20.4082 0.157334C21.3003 0.421407 22.0922 0.948559 22.6797 1.67003C23.3897 2.67003 23.2396 3.25042 22.1596 3.82042C21.3241 4.24058 20.6462 4.9187 20.2265 5.7545C19.8068 6.59031 19.6675 7.53895 19.8296 8.46007C19.9096 8.31007 19.9697 8.22022 20.0097 8.12022C21.6797 4.31022 24.6795 2.46032 28.7495 2.22032C30.3611 2.09537 31.9807 2.31691 33.4995 2.87022C38.1895 4.67022 39.1996 10.2903 37.3896 13.6603L37.1694 14.0104C36.3294 15.3704 35.3596 15.2804 34.5796 14.0704C33.6577 12.5974 32.3735 11.3855 30.8496 10.5504C30.1649 10.1383 29.3905 9.89821 28.5928 9.85118C27.795 9.80415 26.9978 9.9516 26.2695 10.2804C26.3295 10.3704 26.3596 10.4401 26.4096 10.4601C28.7669 11.6741 30.8428 13.3695 32.5034 15.4366C34.164 17.5038 35.372 19.8965 36.0493 22.4601C37.2888 26.7122 37.6898 31.1652 37.2295 35.5704C37.2295 35.7104 37.2295 35.8402 37.2295 36.0602C38.3295 35.8802 39.3794 35.6401 40.4394 35.5401C41.7109 35.3573 42.9988 35.3138 44.2798 35.4103C45.8277 35.6091 47.2669 36.3122 48.375 37.4112C49.4831 38.5103 50.1982 39.9441 50.4096 41.4903C50.7134 43.6261 50.7972 45.7872 50.6596 47.94C50.5833 48.7555 50.1913 49.5091 49.5674 50.0397C48.9434 50.5702 48.1365 50.8361 47.3193 50.7804H3.78953C1.24953 50.7804 -0.0504681 49.3104 0.0395319 46.7804C0.189532 42.3304 2.79941 39.8505 6.66941 38.3805C9.96122 37.2382 13.4638 36.8315 16.9297 37.19C19.5897 37.38 22.2497 37.6002 24.9297 37.8102C25.2297 37.8102 25.4993 37.81 25.5893 37.42C26.7193 32.42 27.3397 27.42 26.2397 22.42C25.8501 20.4492 25.0116 18.5947 23.7895 17.0001C23.1807 16.1735 22.377 15.5108 21.4497 15.0704" fill="white"/>
</svg>
