<svg width="28" height="28" viewBox="0 0 28 28" fill="none" xmlns="http://www.w3.org/2000/svg">
<path d="M6.91667 0.1875C3.20025 0.1875 0.1875 3.20025 0.1875 6.91667V21.0833C0.1875 24.7997 3.20025 27.8125 6.91667 27.8125H9.75C12.684 27.8125 15.0625 25.434 15.0625 22.5C15.0625 21.9132 14.5868 21.4375 14 21.4375C13.4132 21.4375 12.9375 21.9132 12.9375 22.5C12.9375 24.2604 11.5104 25.6875 9.75 25.6875H6.91667C4.37386 25.6875 2.3125 23.6261 2.3125 21.0833V6.91667C2.3125 4.37386 4.37386 2.3125 6.91667 2.3125H9.75C11.5104 2.3125 12.9375 3.73959 12.9375 5.5C12.9375 6.0868 13.4132 6.5625 14 6.5625C14.5868 6.5625 15.0625 6.0868 15.0625 5.5C15.0625 2.56599 12.684 0.1875 9.75 0.1875H6.91667Z" fill="white"/>
<path d="M16.168 10.4154C16.5829 10.8303 16.5829 11.503 16.168 11.918L15.1484 12.9375H26.75C27.3368 12.9375 27.8125 13.4132 27.8125 14C27.8125 14.5868 27.3368 15.0625 26.75 15.0625H15.1484L16.168 16.082C16.5829 16.497 16.5829 17.1697 16.168 17.5846C15.753 17.9996 15.0803 17.9996 14.6654 17.5846L11.832 14.7513C11.7302 14.6494 11.6533 14.532 11.6015 14.4067C11.5507 14.2843 11.5221 14.1503 11.5209 14.0098L11.5208 14L11.5209 13.9902C11.5233 13.7216 11.6271 13.4537 11.832 13.2487L14.6654 10.4154C15.0803 10.0004 15.753 10.0004 16.168 10.4154Z" fill="white"/>
</svg>
