<svg width="241" height="71" viewBox="0 0 241 71" fill="none" xmlns="http://www.w3.org/2000/svg">
<g clip-path="url(#clip0_134_2)">
<path d="M98.3122 27.0568C98.343 28.419 98.0357 29.7677 97.4175 30.9834C96.8523 32.0513 96.0529 32.979 95.0786 33.6976C94.1048 34.4151 93.0096 34.9529 91.845 35.2854C90.6412 35.6388 89.3922 35.8159 88.1371 35.8111H80.4412V34.9207C80.7726 34.9159 81.1036 34.8945 81.4328 34.8563C81.7051 34.8416 81.9738 34.7874 82.2304 34.6954C82.4727 34.6076 82.6754 34.4364 82.8017 34.2126C82.9289 33.9791 82.9921 33.7164 82.9849 33.4509V20.652C82.9881 20.387 82.9368 20.1241 82.834 19.8796C82.7045 19.6341 82.4901 19.4435 82.2304 19.3432C81.9515 19.2187 81.6583 19.1286 81.3573 19.075C81.0542 19.0199 80.7484 18.9805 80.4412 18.9569V18.0665H88.6653C89.7614 18.0756 90.8504 18.2418 91.8989 18.56C92.9079 18.8582 93.8642 19.3106 94.7337 19.901C95.8209 20.6399 96.7032 21.6399 97.299 22.8084C97.9491 24.1442 98.267 25.616 98.2259 27.0997M94.9923 27.0997C95.0074 26.007 94.8399 24.9193 94.4965 23.8812C94.1872 22.9541 93.6963 22.0972 93.0522 21.3601C92.4396 20.668 91.6816 20.1186 90.8318 19.7508C89.9085 19.3467 88.9085 19.1454 87.9 19.1608H86.6928H85.6904V32.7965C85.657 33.0975 85.7042 33.4019 85.8273 33.6789C85.9503 33.9559 86.1448 34.1955 86.391 34.3735C87.0557 34.7126 87.8021 34.8612 88.5467 34.8027C89.5457 34.8264 90.5382 34.6361 91.457 34.2448C92.2506 33.9 92.9439 33.3612 93.4726 32.6785C94.0261 31.957 94.4293 31.1326 94.6582 30.2539C94.921 29.2015 95.0442 28.1195 95.0247 27.0354" fill="#DDD7CB"/>
<path d="M111.074 32.6248C110.591 33.5581 109.879 34.3552 109.005 34.9421C108.122 35.5183 107.085 35.8173 106.03 35.8004C105.136 35.8202 104.25 35.6444 103.432 35.2854C102.719 34.9656 102.092 34.4843 101.6 33.88C101.104 33.2689 100.738 32.5647 100.522 31.8095C100.281 30.9981 100.161 30.1558 100.166 29.3098C100.163 28.522 100.291 27.739 100.543 26.9924C100.775 26.2502 101.141 25.556 101.621 24.9433C102.107 24.356 102.709 23.8741 103.389 23.5272C104.123 23.1676 104.932 22.9874 105.749 23.0015C106.539 22.9811 107.324 23.1235 108.056 23.4199C108.657 23.6711 109.189 24.0609 109.608 24.5571C110.002 25.0379 110.295 25.5924 110.47 26.1878C110.661 26.8469 110.755 27.5297 110.751 28.2155V29.0308H102.624C102.618 29.7522 102.694 30.4719 102.85 31.1765C102.985 31.7889 103.234 32.3709 103.583 32.893C103.908 33.3528 104.346 33.7221 104.855 33.9659C105.431 34.2583 106.073 34.4022 106.719 34.3843C107.396 34.4024 108.063 34.2234 108.638 33.8693C109.292 33.3845 109.82 32.752 110.179 32.024L111.074 32.6248ZM108.325 27.9902C108.321 27.4981 108.281 27.007 108.207 26.5204C108.15 26.0673 108.023 25.6258 107.83 25.2115C107.647 24.845 107.376 24.5283 107.043 24.2889C106.664 24.0392 106.215 23.9153 105.76 23.9349C105.342 23.934 104.929 24.0306 104.555 24.2169C104.18 24.4032 103.855 24.674 103.604 25.0077C102.973 25.8731 102.643 26.9207 102.667 27.9902H108.325Z" fill="#DDD7CB"/>
<path d="M124.634 24.3211C124.253 24.3883 123.888 24.5227 123.556 24.718C123.168 24.9826 122.868 25.3561 122.693 25.7909C122.198 26.8852 121.691 28.0331 121.174 29.2347C120.646 30.4255 120.096 31.6807 119.535 32.9896C119.374 33.3651 119.201 33.8156 119.007 34.3306C118.813 34.8456 118.651 35.4034 118.49 35.8219H117.52C116.733 33.8908 116 32.1313 115.364 30.5435C114.728 28.9557 114.006 27.325 113.294 25.6621C113.132 25.287 112.847 24.9772 112.486 24.7824C112.153 24.5871 111.788 24.4527 111.408 24.3855V23.5701H117.089V24.4284C116.775 24.4499 116.464 24.5038 116.162 24.5893C115.784 24.6859 115.601 24.8146 115.601 24.9755C115.615 25.041 115.633 25.1056 115.655 25.1686C115.655 25.2652 115.741 25.3832 115.784 25.5119C116.129 26.3487 116.604 27.5181 117.229 29.0201C117.854 30.5221 118.307 31.7344 118.738 32.6463L119.869 30.0178C120.322 28.945 120.807 27.7971 121.335 26.4989L121.572 25.8767C121.645 25.692 121.681 25.4955 121.68 25.2974C121.679 25.223 121.66 25.15 121.624 25.0846C121.589 25.0192 121.538 24.9634 121.475 24.9219C121.328 24.7984 121.16 24.7005 120.98 24.6322C120.802 24.5475 120.613 24.4862 120.419 24.4498C120.274 24.4117 120.126 24.383 119.977 24.364V23.5701H124.677L124.634 24.3211Z" fill="#DDD7CB"/>
<path d="M136.037 32.6248C135.551 33.5558 134.84 34.3521 133.968 34.9421C133.085 35.5183 132.049 35.8173 130.993 35.8004C130.1 35.8202 129.213 35.6444 128.395 35.2854C127.683 34.9656 127.055 34.4843 126.563 33.88C126.068 33.2689 125.701 32.5647 125.485 31.8095C125.244 30.9981 125.124 30.1558 125.129 29.3098C125.127 28.522 125.254 27.739 125.507 26.9924C125.739 26.2502 126.104 25.556 126.585 24.9433C127.07 24.356 127.672 23.8741 128.352 23.5272C129.086 23.1676 129.895 22.9874 130.713 23.0015C131.502 22.9823 132.287 23.1247 133.019 23.4199C133.62 23.6711 134.152 24.0609 134.572 24.5571C134.966 25.036 135.256 25.5913 135.423 26.1878C135.619 26.8458 135.713 27.5294 135.703 28.2155V29.0308H127.576C127.571 29.7522 127.647 30.4719 127.803 31.1765C127.938 31.7889 128.186 32.3709 128.535 32.893C128.86 33.3528 129.298 33.7221 129.807 33.9658C130.384 34.2583 131.025 34.4022 131.672 34.3843C132.345 34.4022 133.008 34.2231 133.58 33.8693C134.24 33.3885 134.773 32.7553 135.132 32.024L136.037 32.6248ZM133.289 27.9902C133.284 27.4981 133.244 27.007 133.17 26.5204C133.11 26.0667 132.979 25.6251 132.782 25.2115C132.607 24.8432 132.34 24.5256 132.006 24.2889C131.627 24.0392 131.178 23.9153 130.724 23.9349C130.305 23.934 129.892 24.0306 129.518 24.2169C129.144 24.4032 128.818 24.674 128.568 25.0077C127.936 25.8731 127.607 26.9207 127.63 27.9902H133.289Z" fill="#DDD7CB"/>
<path d="M143.259 35.8433H137.266V35.028H137.881C138.058 35.0107 138.235 34.982 138.409 34.9421C138.629 34.8809 138.817 34.7391 138.937 34.5452C139.063 34.3273 139.123 34.0776 139.109 33.8264V19.6865C139.112 19.3962 139.045 19.1095 138.915 18.8497C138.802 18.6062 138.627 18.3957 138.409 18.2381C138.152 18.1043 137.876 18.0137 137.59 17.9699C137.273 17.9005 136.953 17.8504 136.63 17.8197V17.0366L141.254 16.7684L141.427 16.9507V33.6011C141.416 33.8472 141.472 34.0917 141.588 34.3092C141.707 34.5111 141.894 34.6636 142.117 34.7383C142.289 34.8182 142.47 34.8793 142.656 34.9207C142.854 34.9681 143.056 34.9969 143.259 35.0065V35.8433Z" fill="#DDD7CB"/>
<path d="M156.786 29.2669C156.789 30.1203 156.651 30.9685 156.377 31.7773C156.138 32.5654 155.738 33.2959 155.202 33.9229C154.66 34.5567 153.977 35.0562 153.208 35.382C152.401 35.712 151.536 35.8762 150.664 35.8648C149.898 35.8703 149.139 35.7206 148.433 35.4249C147.723 35.1371 147.081 34.706 146.547 34.159C145.989 33.5781 145.553 32.8925 145.264 32.142C144.931 31.2947 144.766 30.3912 144.779 29.4814C144.709 27.7707 145.312 26.1003 146.46 24.8253C147.6 23.6905 149.14 23.045 150.752 23.0269C152.364 23.0089 153.919 23.6198 155.083 24.7288C155.652 25.3446 156.093 26.0665 156.379 26.8528C156.666 27.6391 156.793 28.4742 156.754 29.3098M154.178 29.3098C154.173 28.6549 154.111 28.0017 153.995 27.3572C153.894 26.7489 153.702 26.1593 153.423 25.6085C153.168 25.1203 152.799 24.7007 152.346 24.3855C151.879 24.0705 151.325 23.9091 150.761 23.9241C150.179 23.9097 149.607 24.0745 149.123 24.3962C148.668 24.7315 148.298 25.1689 148.045 25.6729C147.77 26.2128 147.581 26.7919 147.484 27.3894C147.378 28.0025 147.324 28.6233 147.323 29.2454C147.321 29.965 147.386 30.6833 147.517 31.3911C147.63 32.0171 147.841 32.6216 148.142 33.1827C148.396 33.6743 148.766 34.0976 149.22 34.4164C149.687 34.729 150.242 34.8867 150.804 34.867C151.314 34.8696 151.814 34.7316 152.25 34.4684C152.686 34.2052 153.04 33.827 153.272 33.3758C153.95 32.1156 154.267 30.6942 154.189 29.2669" fill="#DDD7CB"/>
<path d="M169.785 24.7824C170.285 25.3772 170.672 26.0569 170.928 26.7886C171.208 27.6289 171.343 28.5104 171.327 29.3956C171.337 30.2947 171.173 31.1874 170.842 32.024C170.542 32.7689 170.107 33.4526 169.559 34.041C169.032 34.5928 168.403 35.0373 167.705 35.3498C167.027 35.6528 166.293 35.81 165.549 35.8111C164.933 35.8273 164.318 35.744 163.728 35.5644C163.316 35.4239 162.924 35.2291 162.564 34.985H162.467V38.6327C162.458 38.8915 162.522 39.1477 162.65 39.3729C162.768 39.5749 162.956 39.7273 163.178 39.8021C163.455 39.898 163.74 39.9698 164.03 40.0166C164.331 40.0843 164.637 40.1238 164.946 40.1346V40.95H158.08V40.1346H158.834C159.053 40.1114 159.27 40.0684 159.481 40.0059C159.593 39.9756 159.697 39.9216 159.787 39.8475C159.876 39.7735 159.948 39.6811 159.998 39.5768C160.107 39.3493 160.159 39.099 160.149 38.8472V25.9733C160.147 25.7225 160.085 25.4759 159.966 25.2545C159.846 25.0363 159.681 24.8461 159.481 24.6966C159.288 24.5837 159.076 24.5073 158.856 24.4713C158.6 24.4205 158.34 24.3847 158.08 24.364V23.5594L162.273 23.2805L162.445 23.4306V24.8039H162.542C162.995 24.2965 163.54 23.878 164.148 23.5701C164.735 23.2547 165.389 23.0854 166.056 23.0766C166.785 23.0683 167.506 23.2338 168.158 23.5594C168.786 23.8735 169.343 24.3115 169.796 24.8468M167.77 33.5796C168.112 33.0346 168.36 32.4362 168.503 31.8095C168.664 31.0693 168.744 30.3139 168.74 29.5565C168.735 28.929 168.666 28.3036 168.535 27.6898C168.426 27.1101 168.214 26.5543 167.91 26.0484C167.649 25.5819 167.279 25.1845 166.832 24.8897C166.338 24.5847 165.764 24.4317 165.183 24.4498C164.631 24.4315 164.086 24.5691 163.609 24.8468C163.204 25.1093 162.84 25.4312 162.531 25.8016V32.9789C162.622 33.2233 162.745 33.4543 162.898 33.6655C163.066 33.8925 163.257 34.1011 163.469 34.2877C163.724 34.4863 164.003 34.6521 164.299 34.7812C164.642 34.9158 165.008 34.9814 165.377 34.9743C165.851 34.9737 166.316 34.8478 166.724 34.6096C167.164 34.3425 167.534 33.9747 167.802 33.5367" fill="#DDD7CB"/>
<path d="M194.156 35.8433H188.174V35.0279H188.756C188.931 35.0101 189.104 34.9778 189.273 34.9314C189.489 34.8669 189.673 34.7255 189.791 34.5344C189.908 34.3136 189.964 34.0653 189.952 33.8157V27.5503C189.999 26.8428 189.789 26.142 189.359 25.5763C189.183 25.3555 188.958 25.1778 188.702 25.0569C188.446 24.936 188.166 24.8752 187.883 24.879C187.495 24.8784 187.109 24.94 186.74 25.0613C186.391 25.1876 186.061 25.3608 185.759 25.5763C185.532 25.7452 185.329 25.9436 185.156 26.1664C185.02 26.3315 184.897 26.5073 184.789 26.6921V33.6976C184.778 33.9415 184.826 34.1844 184.929 34.4057C185.053 34.5961 185.234 34.7426 185.447 34.8241C185.641 34.8992 185.813 34.9529 185.964 34.9958C186.163 35.0375 186.365 35.0626 186.568 35.0709V35.8433H180.715V35.0279H181.265C181.432 35.0092 181.598 34.9769 181.76 34.9314C181.976 34.8669 182.16 34.7255 182.278 34.5344C182.395 34.3136 182.451 34.0653 182.44 33.8157V27.5503C182.487 26.8428 182.276 26.142 181.847 25.5763C181.67 25.3555 181.446 25.1778 181.19 25.0569C180.934 24.936 180.653 24.8752 180.37 24.879C179.977 24.8767 179.587 24.942 179.217 25.0721C178.865 25.1977 178.535 25.3749 178.236 25.5978C177.998 25.7615 177.79 25.9647 177.621 26.1985C177.46 26.4346 177.33 26.5955 177.244 26.7135V33.6655C177.238 33.9125 177.298 34.1567 177.417 34.3735C177.541 34.5697 177.727 34.7203 177.945 34.8027C178.117 34.8841 178.298 34.9453 178.484 34.985C178.682 35.0316 178.884 35.0603 179.087 35.0709V35.8433H173.127V35.0279H173.72C173.898 35.0111 174.075 34.9788 174.248 34.9314C174.463 34.8669 174.648 34.7255 174.765 34.5344C174.883 34.3136 174.939 34.0653 174.927 33.8157V26.3058C174.934 26.0587 174.874 25.8142 174.754 25.5978C174.626 25.3846 174.454 25.2016 174.248 25.0613C174.064 24.9517 173.864 24.872 173.655 24.8253C173.42 24.7574 173.177 24.7178 172.933 24.7073V23.892L177.05 23.6238L177.223 23.7954V25.5334H177.309L178.074 24.8039C178.33 24.5547 178.608 24.3285 178.904 24.128C179.235 23.9079 179.599 23.7414 179.982 23.6345C180.44 23.4993 180.916 23.4306 181.394 23.4306C182.133 23.4119 182.857 23.6383 183.453 24.0743C183.995 24.4628 184.423 24.9888 184.692 25.5978L185.479 24.8468C185.758 24.5907 186.057 24.3575 186.374 24.1494C186.706 23.9266 187.069 23.7532 187.452 23.6345C187.913 23.4961 188.393 23.4274 188.874 23.4306C189.338 23.4166 189.8 23.5056 190.225 23.6912C190.65 23.8768 191.028 24.1543 191.332 24.5035C192.009 25.39 192.335 26.4936 192.248 27.604V33.7727C192.237 34.0166 192.285 34.2595 192.388 34.4808C192.506 34.6761 192.689 34.8241 192.906 34.8992C193.088 34.9696 193.275 35.0269 193.466 35.0709C193.676 35.109 193.889 35.1341 194.102 35.146L194.156 35.8433Z" fill="#DDD7CB"/>
<path d="M206.53 32.6248C206.043 33.5558 205.332 34.3521 204.46 34.9421C203.574 35.5186 202.534 35.8175 201.475 35.8004C200.582 35.8188 199.695 35.643 198.877 35.2854C198.166 34.9629 197.539 34.482 197.045 33.88C196.549 33.2689 196.183 32.5647 195.967 31.8095C195.726 30.9981 195.606 30.1558 195.611 29.3098C195.614 28.5224 195.741 27.7404 195.988 26.9924C196.22 26.2502 196.586 25.556 197.066 24.9433C197.548 24.3563 198.146 23.8743 198.823 23.5272C199.557 23.1676 200.366 22.9874 201.184 23.0015C201.973 22.9801 202.759 23.1226 203.49 23.4199C204.094 23.671 204.63 24.0607 205.053 24.5571C205.44 25.0411 205.729 25.5948 205.905 26.1878C206.095 26.8469 206.189 27.5297 206.185 28.2155V29.0308H198.047C198.042 29.7522 198.118 30.4719 198.273 31.1765C198.414 31.7874 198.662 32.3686 199.006 32.893C199.331 33.3528 199.769 33.7221 200.278 33.9659C200.855 34.257 201.496 34.4008 202.143 34.3843C202.819 34.4024 203.486 34.2234 204.062 33.8693C204.716 33.3825 205.247 32.7507 205.614 32.024L206.53 32.6248ZM203.771 27.9902C203.766 27.4981 203.726 27.007 203.652 26.5204C203.595 26.0673 203.468 25.6258 203.275 25.2115C203.092 24.845 202.822 24.5283 202.488 24.2889C202.109 24.0392 201.66 23.9153 201.205 23.9349C200.787 23.934 200.374 24.0306 200 24.2169C199.625 24.4032 199.3 24.674 199.05 25.0077C198.427 25.8776 198.098 26.9222 198.112 27.9902H203.771Z" fill="#DDD7CB"/>
<path d="M221.512 35.8433H215.508V35.028H216.134C216.327 35.0136 216.518 34.9812 216.705 34.9314C216.92 34.8669 217.105 34.7255 217.222 34.5345C217.34 34.3136 217.396 34.0653 217.384 33.8157V27.5718C217.429 26.8544 217.211 26.1452 216.77 25.5763C216.585 25.3565 216.354 25.1801 216.093 25.0595C215.833 24.9389 215.548 24.8773 215.261 24.879C214.849 24.8733 214.44 24.9424 214.053 25.0828C213.711 25.208 213.386 25.3737 213.083 25.5763C212.832 25.7436 212.61 25.9501 212.426 26.1878C212.264 26.4131 212.146 26.5848 212.07 26.7135V33.6976C212.059 33.9384 212.119 34.1771 212.243 34.3843C212.369 34.5764 212.554 34.7231 212.771 34.8027C212.949 34.8873 213.137 34.9486 213.331 34.985C213.541 35.0301 213.753 35.0588 213.967 35.0709V35.8433H207.942V35.028H208.535C208.713 35.012 208.89 34.9797 209.063 34.9314C209.171 34.9024 209.272 34.8524 209.361 34.7843C209.45 34.7162 209.524 34.6313 209.58 34.5345C209.706 34.3165 209.766 34.0668 209.753 33.8157V26.3058C209.755 26.0409 209.692 25.7794 209.569 25.5441C209.452 25.3116 209.278 25.1124 209.063 24.9648C208.891 24.8597 208.701 24.787 208.502 24.7502C208.275 24.7038 208.044 24.6751 207.812 24.6644V23.849L211.898 23.5808L212.07 23.7525V25.4583H212.135L212.878 24.7502C213.144 24.5067 213.429 24.2843 213.73 24.0851C214.063 23.869 214.426 23.7027 214.808 23.5916C215.273 23.454 215.756 23.3853 216.241 23.3877C216.734 23.347 217.229 23.4229 217.686 23.6094C218.143 23.7959 218.549 24.0876 218.871 24.4606C219.471 25.3049 219.771 26.3242 219.723 27.3572V33.6976C219.709 33.9394 219.761 34.1804 219.874 34.395C219.992 34.5838 220.17 34.7274 220.38 34.8027C220.547 34.876 220.72 34.9335 220.898 34.9743C221.095 35.022 221.298 35.0472 221.501 35.0494L221.512 35.8433Z" fill="#DDD7CB"/>
<path d="M230.609 35.0387C230.071 35.2532 229.532 35.4464 229.079 35.5966C228.504 35.7584 227.908 35.8344 227.311 35.8219C226.917 35.861 226.519 35.8119 226.146 35.6783C225.773 35.5446 225.434 35.3298 225.155 35.0494C224.701 34.4287 224.476 33.6706 224.52 32.9037V24.6751H222.364V23.495H224.627V19.7508H226.902V23.5272H230.426V24.7073H226.923V31.4983C226.923 32.0026 226.923 32.4317 226.977 32.7643C227.01 33.0788 227.101 33.3844 227.247 33.6655C227.38 33.9036 227.588 34.092 227.839 34.2019C228.181 34.3404 228.549 34.4026 228.917 34.3843C229.222 34.4001 229.528 34.4001 229.833 34.3843C230.121 34.3685 230.407 34.3217 230.685 34.2448L230.609 35.0387Z" fill="#DDD7CB"/>
<path d="M239.944 29.5565C240.28 29.854 240.548 30.2199 240.731 30.6293C240.919 31.0775 241.011 31.5599 241 32.0455C241.013 32.5722 240.904 33.0949 240.682 33.573C240.459 34.0511 240.129 34.4719 239.717 34.8027C238.786 35.5475 237.613 35.9289 236.419 35.8755C235.738 35.8833 235.063 35.7519 234.436 35.4893C233.977 35.3195 233.545 35.0846 233.153 34.7919L232.905 35.5966H231.967L231.838 31.3696H232.7C232.795 31.7432 232.936 32.1036 233.121 32.4424C233.332 32.8604 233.597 33.2498 233.908 33.6011C234.24 33.9696 234.634 34.2782 235.072 34.513C235.542 34.7649 236.068 34.8941 236.602 34.8885C237.261 34.9295 237.913 34.7397 238.445 34.3521C238.663 34.1598 238.835 33.921 238.947 33.6534C239.059 33.3859 239.108 33.0966 239.092 32.8072C239.102 32.4977 239.032 32.191 238.887 31.9167C238.741 31.6514 238.534 31.4237 238.284 31.2516C237.965 31.0474 237.626 30.8783 237.271 30.7474C236.872 30.5864 236.43 30.447 235.945 30.2968C235.46 30.1466 235.115 30.0178 234.641 29.8247C234.201 29.6437 233.788 29.4056 233.412 29.1167C233.043 28.8242 232.738 28.4589 232.517 28.0438C232.271 27.5896 232.148 27.0792 232.161 26.5633C232.151 26.091 232.242 25.6218 232.427 25.1871C232.613 24.7524 232.89 24.3621 233.239 24.0422C234.067 23.3145 235.143 22.9305 236.247 22.9693C236.745 22.9715 237.241 23.0364 237.723 23.1624C238.151 23.2534 238.564 23.4013 238.952 23.6023L239.232 22.9586H240.138L240.321 26.8637H239.513C239.386 26.0545 239.009 25.3047 238.435 24.718C238.149 24.4452 237.81 24.2324 237.44 24.0923C237.07 23.9522 236.675 23.8877 236.279 23.9027C235.699 23.8644 235.126 24.0443 234.673 24.4069C234.487 24.5546 234.337 24.7423 234.234 24.956C234.131 25.1697 234.079 25.4038 234.08 25.6407C234.07 25.9592 234.136 26.2756 234.274 26.5633C234.411 26.8169 234.612 27.0311 234.856 27.1856C235.151 27.3733 235.465 27.528 235.794 27.6469C236.171 27.7971 236.645 27.958 237.195 28.1296C237.726 28.299 238.244 28.5033 238.747 28.7412C239.183 28.9381 239.589 29.1945 239.954 29.5029" fill="#DDD7CB"/>
<path d="M39.3314 -3.8147e-06C41.1354 1.80272 42.6838 3.84203 43.9338 6.0615C44.0524 6.27606 44.1818 6.49063 44.2895 6.70519C44.3973 6.91976 44.6668 7.44545 44.85 7.77803C45.0333 8.1106 45.1518 8.42173 45.292 8.75431C45.4321 9.08689 45.5722 9.40874 45.6908 9.75204C45.8093 10.0953 46.0141 10.6103 46.1543 11.0502C46.2405 11.3184 46.3375 11.5866 46.4129 11.8655C46.6285 12.5843 46.8225 13.3246 46.9842 14.0863C48.9351 23.4199 46.6716 31.5305 40.2475 38.1928C37.3752 41.187 33.5213 43.0593 29.3827 43.4711C29.024 43.501 28.6635 43.501 28.3048 43.4711C28.9417 42.9733 29.5398 42.4282 30.094 41.8404C31.2329 40.6155 32.1911 39.2356 32.9396 37.7422C33.3507 36.9468 33.7107 36.1262 34.0175 35.2854C34.6743 33.5052 35.1721 31.6707 35.5049 29.8033C35.6882 28.7304 35.8391 27.6576 35.9684 26.5848C36.3387 23.5995 36.4505 20.5881 36.3026 17.5837C36.3026 16.6289 36.1732 15.6741 36.0546 14.7514C35.8599 13.0781 35.5575 11.419 35.1492 9.78422C34.8906 8.71139 34.5995 7.63857 34.2546 6.66229C34.0606 6.09011 33.8558 5.51436 33.6402 4.93503C33.6107 4.88355 33.5854 4.82973 33.5648 4.7741C33.3492 4.23769 33.1336 3.70127 32.8965 3.21849C32.413 2.17364 31.8584 1.16283 31.2366 0.193106L31.1288 0.032188H7.16784L7.06006 0.193106C6.80137 0.590054 6.56424 0.997738 6.32711 1.41614C5.93353 2.07708 5.57378 2.7574 5.24924 3.45452L4.92589 4.22696C4.51615 5.1841 4.15638 6.16169 3.84802 7.15579C1.89269 13.397 1.34433 19.9905 2.242 26.4668C2.60544 29.035 3.19699 31.566 4.0097 34.0302C4.41929 35.2747 4.88277 36.5192 5.41093 37.7637C5.70195 38.4396 6.01453 39.094 6.35945 39.727C7.37363 41.5778 8.6884 43.249 10.2505 44.6727C10.8255 45.1598 11.4382 45.601 12.0829 45.9923C14.0275 47.1907 16.2631 47.8397 18.5501 47.8698C23.1418 48.0199 27.9599 48.3096 32.8749 48.728C33.6609 48.8115 34.4393 48.9549 35.2031 49.1572C35.99 49.3717 36.8307 49.6292 37.7361 49.9296C39.1797 50.4211 40.4316 51.3518 41.3146 52.5902C41.8906 53.2701 42.2454 54.1082 42.332 54.9933C42.4187 55.8785 42.233 56.7689 41.7997 57.5467C41.6409 57.7999 41.4405 58.0248 41.2068 58.2119C41.0257 58.3589 40.8308 58.4882 40.6248 58.5981L40.4308 58.7161C39.8247 59.0138 39.1652 59.1888 38.4906 59.231C38.3828 59.231 38.2966 59.231 38.1996 59.231H38.1134C37.7956 59.2331 37.4783 59.208 37.1648 59.1559C30.1264 58.362 30.4066 48.6744 18.1405 48.9962C13.5313 49.2417 8.95614 48.0855 5.02289 45.6812C3.23878 44.6638 1.58482 43.4355 0.0970459 42.0228V70.9893H62.6564V-3.8147e-06H39.3314Z" fill="#DDD7CB"/>
<path d="M80.2363 51.5817V45.9065H82.3921C82.8199 45.8956 83.2455 45.9723 83.6424 46.1318C83.9679 46.271 84.2452 46.5023 84.44 46.7969C84.641 47.1178 84.7388 47.4921 84.7202 47.8698C84.7439 48.2479 84.6457 48.6238 84.44 48.9426C84.2459 49.2403 83.9687 49.4752 83.6424 49.6185C83.2464 49.7819 82.8207 49.8623 82.3921 49.8545H80.592L80.8615 49.5648V51.6461L80.2363 51.5817ZM80.8399 49.5541L80.5705 49.2644H82.3597C82.822 49.2961 83.2805 49.163 83.6532 48.8889C83.8081 48.7587 83.9291 48.5931 84.006 48.4064C84.083 48.2196 84.1135 48.0171 84.0951 47.8161C84.1117 47.6153 84.0804 47.4133 84.0035 47.2269C83.9267 47.0404 83.8067 46.8747 83.6532 46.7433C83.2805 46.4692 82.822 46.3361 82.3597 46.3678H80.5705L80.8399 46.0889V49.5541Z" fill="#DDD7CB"/>
<path d="M91.0689 51.6247C90.6598 51.6323 90.2532 51.5594 89.8725 51.4101C89.5155 51.2759 89.1892 51.0716 88.9132 50.8093C88.6495 50.5427 88.4375 50.2299 88.288 49.8867C88.1334 49.5238 88.0563 49.1329 88.0617 48.7387C88.0585 48.3448 88.1355 47.9543 88.288 47.5908C88.4378 47.2509 88.6498 46.9417 88.9132 46.6789C89.1915 46.4169 89.517 46.2095 89.8725 46.0674C90.2541 45.9212 90.6601 45.8484 91.0689 45.8528C91.474 45.8515 91.8759 45.9242 92.2546 46.0674C92.6089 46.2055 92.9315 46.4135 93.2031 46.6789C93.4723 46.9368 93.6851 47.2473 93.8282 47.5908C94.1296 48.3304 94.1296 49.1578 93.8282 49.8974C93.6829 50.2427 93.4683 50.5549 93.1978 50.8149C92.9272 51.075 92.6063 51.2775 92.2546 51.4101C91.8773 51.5583 91.4744 51.6312 91.0689 51.6247ZM91.0689 51.0882C91.3932 51.0925 91.7154 51.0342 92.0174 50.9166C92.3 50.8047 92.5567 50.6368 92.7719 50.4231C92.9917 50.2012 93.1649 49.938 93.2815 49.6488C93.398 49.3596 93.4557 49.0503 93.451 48.7387C93.458 48.4181 93.3955 48.0998 93.2678 47.8054C93.1528 47.5255 92.9844 47.2705 92.7719 47.0544C92.5538 46.8441 92.2979 46.6767 92.0174 46.5609C91.4022 46.3323 90.7248 46.3323 90.1096 46.5609C89.8259 46.6767 89.5664 46.844 89.3443 47.0544C89.1286 47.27 88.9566 47.525 88.8377 47.8054C88.6082 48.4067 88.6082 49.0708 88.8377 49.6721C88.954 49.9545 89.1267 50.2104 89.3453 50.4243C89.564 50.6382 89.824 50.8057 90.1096 50.9166C90.4152 51.0351 90.741 51.0934 91.0689 51.0882Z" fill="#DDD7CB"/>
<path d="M99.4654 51.6247C99.0506 51.6277 98.6385 51.5587 98.2475 51.4208C97.9108 51.3134 97.6017 51.134 97.342 50.8951L97.5792 50.4338C97.8146 50.6454 98.0892 50.8093 98.3876 50.9166C98.73 51.054 99.0962 51.1233 99.4654 51.1204C99.7629 51.1321 100.06 51.0847 100.339 50.981C100.535 50.9129 100.707 50.79 100.834 50.6269C100.94 50.48 100.997 50.3035 100.996 50.1227C101.002 50.0249 100.987 49.927 100.954 49.8348C100.92 49.7427 100.869 49.6581 100.802 49.5863C100.665 49.4407 100.495 49.3303 100.306 49.2644C100.081 49.1808 99.8507 49.1127 99.6163 49.0606L98.8726 48.8675C98.6326 48.8062 98.401 48.7161 98.1828 48.5993C97.981 48.4903 97.8076 48.336 97.6762 48.1487C97.5376 47.9272 97.47 47.669 97.4822 47.4084C97.481 47.1346 97.5596 46.8663 97.7085 46.636C97.8796 46.3852 98.1189 46.188 98.3984 46.0674C98.7739 45.9134 99.178 45.8403 99.584 45.8528C99.909 45.8511 100.232 45.8981 100.543 45.9923C100.832 46.0656 101.106 46.1891 101.352 46.3571L101.147 46.8398C100.911 46.6757 100.648 46.5524 100.371 46.4751C100.111 46.4032 99.8428 46.3671 99.5732 46.3678C99.2864 46.3581 99.0006 46.4055 98.7325 46.5073C98.5351 46.5782 98.3627 46.705 98.2367 46.872C98.1291 47.0262 98.0726 47.21 98.075 47.3977C98.0663 47.5949 98.136 47.7876 98.269 47.9341C98.4133 48.073 98.5862 48.1791 98.7756 48.2452C99.0006 48.3288 99.2311 48.3969 99.4654 48.4491L100.209 48.6422C100.445 48.7092 100.673 48.8028 100.888 48.9211C101.094 49.0199 101.269 49.1718 101.395 49.361C101.534 49.5744 101.601 49.8259 101.589 50.0798C101.592 50.3505 101.513 50.6159 101.362 50.8415C101.19 51.0956 100.947 51.2934 100.662 51.4101C100.284 51.5693 99.8753 51.6426 99.4654 51.6247Z" fill="#DDD7CB"/>
<path d="M106.935 51.6247C106.52 51.6277 106.108 51.5587 105.717 51.4208C105.382 51.3163 105.076 51.1364 104.822 50.8951L105.06 50.4338C105.292 50.6499 105.567 50.8145 105.868 50.9166C106.21 51.0565 106.576 51.1259 106.946 51.1204C107.243 51.1321 107.54 51.0847 107.819 50.981C108.019 50.9148 108.195 50.7917 108.325 50.6269C108.424 50.477 108.476 50.3018 108.476 50.1227C108.482 50.0249 108.468 49.927 108.434 49.8348C108.401 49.7427 108.349 49.6581 108.282 49.5863C108.147 49.4386 107.977 49.3278 107.787 49.2644C107.562 49.1793 107.331 49.1112 107.097 49.0606L106.353 48.8675C106.114 48.8024 105.883 48.7125 105.663 48.5993C105.464 48.4873 105.291 48.3336 105.157 48.1487C105.022 47.926 104.958 47.6679 104.973 47.4084C104.968 47.1356 105.043 46.8672 105.189 46.636C105.36 46.3852 105.599 46.188 105.879 46.0674C106.255 45.9143 106.658 45.8412 107.064 45.8528C107.389 45.8511 107.713 45.8981 108.024 45.9923C108.315 46.0676 108.592 46.1909 108.843 46.3571L108.638 46.8398C108.397 46.6775 108.131 46.5544 107.851 46.4751C107.595 46.4041 107.33 46.368 107.064 46.3678C106.774 46.3567 106.484 46.4041 106.213 46.5073C106.015 46.5782 105.843 46.705 105.717 46.872C105.617 47.0294 105.565 47.2117 105.566 47.3977C105.559 47.5928 105.624 47.7838 105.749 47.9341C105.894 48.073 106.067 48.1791 106.256 48.2452C106.481 48.3274 106.712 48.3955 106.946 48.4491L107.69 48.6422C107.929 48.7109 108.16 48.8044 108.379 48.9211C108.581 49.0257 108.754 49.1765 108.886 49.361C109.016 49.5777 109.08 49.8275 109.069 50.0798C109.072 50.3505 108.993 50.6159 108.843 50.8415C108.675 51.0953 108.435 51.2933 108.153 51.4101C107.768 51.5717 107.352 51.6451 106.935 51.6247Z" fill="#DDD7CB"/>
<path d="M112.885 51.5817V45.9065H113.488V51.5817H112.885Z" fill="#DDD7CB"/>
<path d="M117.822 51.5817V45.9065H120.29C120.809 45.8778 121.325 46.0089 121.767 46.282C121.955 46.4272 122.102 46.6185 122.194 46.8373C122.286 47.056 122.32 47.2948 122.292 47.5303C122.264 47.7658 122.175 47.9901 122.033 48.1812C121.892 48.3722 121.704 48.5237 121.486 48.6207C121.231 48.7295 120.956 48.7843 120.678 48.7817L120.818 48.5885C121.138 48.5814 121.457 48.6361 121.756 48.7495C122.014 48.8542 122.233 49.0367 122.382 49.2714C122.53 49.5061 122.602 49.7813 122.586 50.0583C122.588 50.2658 122.541 50.4708 122.449 50.6571C122.358 50.8433 122.224 51.0057 122.058 51.1312C121.576 51.4259 121.015 51.5646 120.452 51.5281L117.822 51.5817ZM118.425 51.0882H120.441C120.842 51.111 121.241 51.0219 121.594 50.8308C121.711 50.7301 121.804 50.6056 121.868 50.4659C121.932 50.3262 121.965 50.1744 121.965 50.0208C121.965 49.8672 121.932 49.7154 121.868 49.5757C121.804 49.4359 121.711 49.3115 121.594 49.2108C121.241 49.0197 120.842 48.9305 120.441 48.9533H118.36V48.4598H120.247C120.624 48.4861 121 48.3962 121.325 48.2023C121.445 48.1124 121.543 47.9958 121.61 47.8617C121.678 47.7276 121.713 47.5798 121.713 47.4299C121.713 47.28 121.678 47.1322 121.61 46.9981C121.543 46.864 121.445 46.7474 121.325 46.6575C121 46.4636 120.624 46.3737 120.247 46.4H118.425V51.0882Z" fill="#DDD7CB"/>
<path d="M126.455 51.5817V45.9065H127.059V51.5817H126.455Z" fill="#DDD7CB"/>
<path d="M131.392 51.5817V45.9065H131.995V51.0561H135.229V51.5817H131.392Z" fill="#DDD7CB"/>
<path d="M138.678 51.5817V45.9065H139.271V51.5817H138.678Z" fill="#DDD7CB"/>
<path d="M144.736 51.5817V46.4214H142.731V45.9065H147.344V46.4214H145.339V51.5817H144.736Z" fill="#DDD7CB"/>
<path d="M150.783 51.5817V45.9065H151.386V51.5817H150.783Z" fill="#DDD7CB"/>
<path d="M156.334 51.0561H159.75V51.5817H155.719V45.9065H159.632V46.4214H156.323L156.334 51.0561ZM156.269 48.4383H159.276V48.9533H156.269V48.4383Z" fill="#DDD7CB"/>
<path d="M165.237 51.6247C164.822 51.6277 164.41 51.5587 164.019 51.4208C163.682 51.3134 163.373 51.134 163.113 50.8951L163.351 50.4338C163.588 50.6477 163.867 50.8119 164.17 50.9166C164.511 51.0565 164.878 51.1259 165.248 51.1204C165.545 51.1321 165.842 51.0847 166.121 50.981C166.317 50.9129 166.489 50.79 166.616 50.6269C166.722 50.48 166.779 50.3035 166.778 50.1227C166.784 50.0249 166.769 49.927 166.736 49.8348C166.703 49.7427 166.651 49.6581 166.584 49.5863C166.447 49.4407 166.277 49.3303 166.088 49.2644C165.863 49.1808 165.633 49.1127 165.398 49.0606L164.655 48.8675C164.415 48.8047 164.184 48.7147 163.965 48.5993C163.765 48.4873 163.592 48.3336 163.458 48.1487C163.32 47.9272 163.252 47.669 163.264 47.4084C163.263 47.1346 163.342 46.8663 163.491 46.636C163.662 46.3852 163.901 46.188 164.18 46.0674C164.556 45.9134 164.96 45.8403 165.366 45.8528C165.691 45.8511 166.015 45.8981 166.325 45.9923C166.614 46.0656 166.888 46.1891 167.134 46.3571L166.929 46.8398C166.693 46.6757 166.43 46.5524 166.153 46.4751C165.897 46.4041 165.632 46.368 165.366 46.3678C165.076 46.3567 164.786 46.4041 164.515 46.5073C164.317 46.5782 164.145 46.705 164.019 46.872C163.911 47.0262 163.855 47.21 163.857 47.3977C163.848 47.5949 163.918 47.7876 164.051 47.9341C164.195 48.073 164.368 48.1791 164.558 48.2452C164.783 48.3288 165.013 48.3969 165.248 48.4491L165.991 48.6422C166.23 48.7109 166.462 48.8044 166.681 48.9211C166.882 49.0231 167.052 49.1745 167.177 49.361C167.316 49.5744 167.384 49.8259 167.371 50.0798C167.374 50.3505 167.295 50.6159 167.145 50.8415C166.972 51.0956 166.729 51.2934 166.444 51.4101C166.063 51.5708 165.65 51.6442 165.237 51.6247Z" fill="#DDD7CB"/>
<path d="M178.074 51.6247C177.761 51.643 177.447 51.5973 177.153 51.4902C176.858 51.3832 176.588 51.2172 176.36 51.0024C176.136 50.753 175.963 50.4611 175.854 50.1441C175.745 49.8271 175.701 49.4915 175.724 49.1572V45.9387H176.328V49.1572C176.283 49.6919 176.449 50.2231 176.792 50.6377C177.151 50.9429 177.607 51.1106 178.08 51.1106C178.552 51.1106 179.009 50.9429 179.368 50.6377C179.702 50.2189 179.867 49.6909 179.831 49.1572V45.9387H180.413V49.1572C180.439 49.4908 180.397 49.8261 180.289 50.1432C180.182 50.4602 180.011 50.7525 179.788 51.0024C179.561 51.2183 179.292 51.385 178.997 51.4921C178.702 51.5992 178.388 51.6443 178.074 51.6247Z" fill="#DDD7CB"/>
<path d="M184.714 51.5817V45.9065H185.21L189.144 50.8308H188.853V45.9065H189.446V51.5817H188.95L185.026 46.6467H185.285V51.5817H184.714Z" fill="#DDD7CB"/>
<path d="M193.822 51.5817V45.9065H194.425V51.0561H197.659V51.5817H193.822Z" fill="#DDD7CB"/>
<path d="M203.48 51.6247C203.074 51.6323 202.671 51.5594 202.294 51.4101C201.754 51.2021 201.291 50.8346 200.968 50.357C200.644 49.8795 200.475 49.3148 200.483 48.7387C200.487 48.3629 200.564 47.9913 200.709 47.6445C200.855 47.3023 201.068 46.9924 201.335 46.7325C201.609 46.4707 201.931 46.2631 202.283 46.121C203.055 45.8349 203.904 45.8349 204.676 46.121C205.029 46.2617 205.351 46.4694 205.625 46.7325C205.894 46.9905 206.107 47.3009 206.25 47.6445C206.551 48.3841 206.551 49.2114 206.25 49.951C206.104 50.2932 205.891 50.6031 205.625 50.8629C205.351 51.1227 205.028 51.3267 204.676 51.4637C204.292 51.5948 203.885 51.6495 203.48 51.6247ZM203.48 51.0882C203.804 51.0934 204.126 51.035 204.428 50.9166C204.712 50.8073 204.97 50.6415 205.187 50.4294C205.404 50.2172 205.575 49.9632 205.689 49.6828C205.812 49.3831 205.874 49.0623 205.872 48.7387C205.874 48.4186 205.812 48.1013 205.689 47.8054C205.574 47.5255 205.406 47.2705 205.193 47.0544C204.971 46.844 204.712 46.6767 204.428 46.5609C204.125 46.4474 203.804 46.3892 203.48 46.3892C203.156 46.3904 202.835 46.4485 202.531 46.5609C202.247 46.6767 201.988 46.844 201.766 47.0544C201.55 47.27 201.378 47.525 201.259 47.8054C201.015 48.4038 201.015 49.0736 201.259 49.6721C201.375 49.9545 201.548 50.2104 201.767 50.4243C201.985 50.6382 202.245 50.8057 202.531 50.9166C202.833 51.0342 203.155 51.0925 203.48 51.0882Z" fill="#DDD7CB"/>
<path d="M212.781 51.6247C212.376 51.6312 211.973 51.5583 211.596 51.4101C211.245 51.2791 210.924 51.077 210.655 50.8166C210.386 50.5563 210.174 50.2433 210.033 49.8974C209.732 49.1578 209.732 48.3304 210.033 47.5908C210.172 47.2451 210.385 46.9339 210.658 46.6789C210.93 46.4135 211.252 46.2055 211.607 46.0674C212.364 45.7813 213.199 45.7813 213.956 46.0674C214.31 46.1952 214.627 46.4048 214.883 46.6789L214.495 47.0651C214.277 46.8392 214.013 46.6634 213.719 46.5502C213.43 46.4413 213.123 46.3867 212.814 46.3892C212.486 46.3893 212.162 46.4475 211.855 46.5609C211.571 46.6767 211.311 46.844 211.089 47.0544C210.874 47.27 210.702 47.525 210.583 47.8054C210.46 48.1013 210.398 48.4186 210.399 48.7387C210.398 49.0623 210.46 49.3831 210.583 49.6828C210.702 49.9599 210.874 50.2113 211.089 50.4231C211.308 50.6371 211.569 50.8049 211.855 50.9166C212.16 51.0351 212.486 51.0934 212.814 51.0882C213.123 51.0908 213.43 51.0362 213.719 50.9273C214.013 50.8141 214.277 50.6383 214.495 50.4124L214.883 50.7878C214.629 51.0685 214.311 51.2854 213.956 51.4208C213.581 51.5607 213.182 51.6298 212.781 51.6247Z" fill="#DDD7CB"/>
<path d="M218.656 51.5817V45.9065H219.26V51.5817H218.656ZM219.173 50.1656V49.4361L222.622 45.9065H223.345L220.833 48.5349L220.488 48.8997L219.173 50.1656ZM222.752 51.5817L220.294 48.7173L220.693 48.2774L223.463 51.4959L222.752 51.5817Z" fill="#DDD7CB"/>
<path d="M227.527 51.0561H230.965V51.5817H226.923V45.9065H230.89V46.4214H227.581L227.527 51.0561ZM227.462 48.4383H230.48V48.9533H227.462V48.4383Z" fill="#DDD7CB"/>
<path d="M234.867 51.5817V45.9065H237.184C237.737 45.8943 238.284 46.0158 238.78 46.2605C239.226 46.4909 239.599 46.84 239.857 47.269C240.118 47.7146 240.248 48.2235 240.235 48.7387C240.249 49.2574 240.118 49.7699 239.857 50.2192C239.601 50.6475 239.227 50.9938 238.78 51.217C238.287 51.4705 237.738 51.596 237.184 51.5817H234.867ZM235.471 51.0561H237.152C237.607 51.0669 238.059 50.9675 238.467 50.7664C238.826 50.5805 239.124 50.2979 239.329 49.951C239.546 49.5842 239.654 49.164 239.642 48.7387C239.655 48.3167 239.547 47.8997 239.329 47.5372C239.13 47.1861 238.83 46.9022 238.467 46.7218C238.061 46.5123 237.609 46.4089 237.152 46.4214H235.471V51.0561Z" fill="#DDD7CB"/>
</g>
<defs>
<clipPath id="clip0_134_2">
<rect width="241" height="71" fill="white"/>
</clipPath>
</defs>
</svg>
