<svg width="300" height="146" viewBox="0 0 300 146" fill="none" xmlns="http://www.w3.org/2000/svg">
<g clip-path="url(#clip0_79_13609)">
<path d="M171.31 4.8637C169.727 4.89092 168.211 4.88548 166.694 4.99302C161.25 5.37895 155.996 6.57553 150.966 8.69099C141.441 12.6973 133.883 19.0151 128.625 27.9792C125.89 32.6233 124.12 37.7725 123.421 43.1182C122.697 48.5831 122.999 53.9834 124.731 59.2496C126.943 65.973 130.838 71.4591 136.801 75.366C140.309 77.6645 144.156 79.0919 148.346 79.4199C157.992 80.1761 166.131 77.0234 172.536 69.7166C175.984 65.7831 178.007 61.1404 178.646 55.9341C179.28 50.7673 178.678 45.7462 176.622 40.9476C174.35 35.646 170.511 31.7997 165.442 29.1424C162.694 27.7022 159.775 26.7513 156.741 26.1421C156.219 26.0373 156.217 26.0319 156.241 25.5357C156.402 22.1324 157.198 18.8987 158.803 15.8888C161.173 11.4422 164.62 8.17437 169.383 6.39039C170.361 6.03206 171.368 5.76034 172.394 5.57838C172.78 5.50691 173.091 5.57293 173.429 5.74105C178.229 8.12246 182.621 11.2508 186.443 15.0094C192.166 20.6398 196.331 27.2545 198.936 34.8538C200.126 38.3536 200.924 41.9752 201.315 45.6516C201.626 48.5166 201.694 51.4029 201.519 54.2795C201.149 60.589 199.586 66.7707 196.913 72.4964C194.472 77.78 191.125 82.5946 187.025 86.7219C180.149 93.6428 171.964 98.2535 162.458 100.487C158.33 101.457 154.096 101.897 149.857 101.795C142.933 101.634 136.298 100.153 129.995 97.2638C121.43 93.3378 114.478 87.4856 109.138 79.7072C105.05 73.7583 102.377 67.222 101.117 60.0984C100.487 56.6142 100.228 53.0728 100.346 49.534C100.576 42.8174 102.021 36.3703 104.833 30.258C109.475 20.1499 116.642 12.3631 126.336 6.89748C131.331 4.07755 136.675 2.21802 142.329 1.24061C146.306 0.55405 150.35 0.343611 154.377 0.613727C160.082 0.990707 165.683 2.33288 170.94 4.58327C171.024 4.61731 171.106 4.65711 171.184 4.70238C171.218 4.72349 171.237 4.76841 171.31 4.8637Z" fill="#DDD7CB"/>
<path d="M126.219 143.515C126.015 143.468 125.948 143.575 125.871 143.651C124.13 145.305 122.038 145.71 119.757 145.301C117.062 144.82 115.193 143.187 113.934 140.832C112.521 138.187 112.181 135.338 112.494 132.384C112.656 130.848 113.155 129.43 113.884 128.08C114.494 126.934 115.381 125.959 116.463 125.243C118.387 123.968 120.479 123.282 122.803 123.38C123.644 123.416 124.462 123.598 125.276 123.797C125.491 123.849 125.698 123.978 125.937 123.878C126.054 123.644 126.005 123.39 126.005 123.144C126.009 120.966 126.009 118.788 126.005 116.61C126.005 116.451 126.012 116.292 126.005 116.133C125.993 115.869 126.125 115.773 126.374 115.773C127.892 115.776 129.41 115.776 130.929 115.773C131.229 115.773 131.329 115.92 131.323 116.192C131.319 116.374 131.323 116.555 131.323 116.737V144.022C131.323 145.122 131.349 144.955 130.362 144.962C129.206 144.97 128.051 144.957 126.895 144.967C126.577 144.967 126.386 144.903 126.37 144.531C126.359 144.195 126.275 143.862 126.219 143.515ZM126.007 133.824V132.871C126.007 131.577 125.996 130.284 126.012 128.991C126.016 128.641 125.907 128.441 125.556 128.36C125.116 128.258 124.689 128.095 124.246 128.011C121.114 127.414 118.841 128.908 117.908 131.694C117.173 133.89 117.453 136.16 118.452 138.255C119.8 141.087 122.935 141.573 125.262 139.8C125.746 139.432 126.057 139.007 126.028 138.312C125.964 136.819 126.007 135.32 126.007 133.824Z" fill="#DDD7CB"/>
<path d="M230.625 139.024C230.836 139.271 230.867 139.523 230.944 139.756C231.284 140.789 231.614 141.826 231.97 142.853C232.09 143.193 231.999 143.393 231.707 143.585C231.179 143.94 230.6 144.21 229.989 144.387C228.199 144.884 226.386 145.295 224.523 145.375C223.025 145.444 221.529 145.214 220.121 144.698C217.279 143.658 215.436 141.608 214.542 138.784C213.474 135.409 213.554 132 215.073 128.766C216.664 125.379 219.436 123.593 223.17 123.361C224.726 123.263 226.254 123.458 227.671 124.152C229.993 125.29 231.534 127.124 232.259 129.597C232.794 131.382 233.042 133.24 232.992 135.102C232.972 135.719 232.98 135.725 232.343 135.726C228.309 135.726 224.276 135.726 220.242 135.726C219.255 135.726 219.279 135.726 219.443 136.716C219.87 139.302 221.584 140.555 224.163 140.772C226.502 140.972 228.659 140.401 230.625 139.024ZM223.488 131.92C224.527 131.92 225.566 131.92 226.606 131.92C227.72 131.92 227.606 131.952 227.39 130.899C226.973 128.871 224.904 127.353 222.995 127.7C221.196 128.027 219.77 129.316 219.491 131.428C219.432 131.879 219.465 131.91 219.963 131.913C221.138 131.928 222.31 131.92 223.487 131.92H223.488Z" fill="#DDD7CB"/>
<path d="M196.996 125.518C197.382 125.265 197.676 125.061 197.979 124.874C200.426 123.377 203.032 122.941 205.797 123.772C207.825 124.38 209.179 125.718 209.869 127.728C210.361 129.144 210.618 130.632 210.631 132.132C210.659 136.216 210.645 140.3 210.644 144.384C210.644 144.975 210.636 144.983 210.044 144.985C208.684 144.989 207.325 144.989 205.965 144.985C205.262 144.985 205.258 144.985 205.257 144.29C205.257 140.864 205.257 137.438 205.257 134.012C205.257 133.195 205.309 132.379 205.151 131.569C205.107 131.347 205.074 131.122 205.02 130.902C204.307 127.98 201.884 127.417 199.786 128.184C198.878 128.517 198.15 129.142 197.421 129.757C197.204 129.941 197.182 130.174 197.183 130.432C197.188 131.294 197.183 132.156 197.183 133.018V144.045C197.183 144.203 197.173 144.363 197.183 144.521C197.203 144.836 197.074 144.968 196.749 144.966C195.231 144.956 193.713 144.956 192.194 144.966C191.907 144.966 191.772 144.865 191.786 144.572C191.795 144.413 191.786 144.254 191.786 144.095C191.786 137.652 191.786 131.208 191.786 124.765C191.786 124.697 191.786 124.629 191.786 124.561C191.792 123.896 191.792 123.891 192.456 123.889C193.702 123.886 194.948 123.886 196.195 123.889C196.718 123.889 196.717 123.902 196.801 124.396C196.859 124.731 196.918 125.065 196.996 125.518Z" fill="#DDD7CB"/>
<path d="M109.572 134.835C109.572 136.584 109.087 138.526 108.133 140.343C106.692 143.086 104.454 144.755 101.391 145.301C98.8425 145.756 96.4286 145.444 94.2105 144.05C92.6753 143.099 91.4553 141.716 90.7041 140.073C88.8687 136.076 88.9054 132.076 90.9761 128.169C92.4036 125.472 94.7577 124.017 97.7134 123.523C99.8595 123.162 101.979 123.318 103.941 124.323C106.292 125.528 107.982 127.348 108.778 129.926C109.318 131.681 109.612 133.298 109.572 134.835ZM104.325 134.171C104.309 133.921 104.292 133.673 104.275 133.422C104.19 131.937 103.621 130.521 102.656 129.391C100.974 127.403 97.9819 127.406 96.2729 129.377C95.36 130.43 94.9372 131.677 94.7652 133.027C94.5225 134.941 94.7652 136.771 95.6672 138.506C97.0268 141.119 101.131 141.857 102.999 138.991C103.96 137.516 104.415 135.924 104.325 134.174V134.171Z" fill="#DDD7CB"/>
<path d="M178.6 123.388C181.948 123.345 184.589 124.729 186.581 127.395C187.427 128.528 187.814 129.855 188.17 131.195C189.04 134.463 188.661 137.585 187.056 140.541C185.534 143.342 183.151 144.925 180.002 145.377C178.098 145.65 176.248 145.483 174.482 144.708C172.077 143.655 170.419 141.831 169.447 139.433C167.966 135.778 168.075 132.122 169.801 128.564C171.229 125.624 173.666 124.034 176.843 123.507C177.155 123.456 177.47 123.414 177.785 123.392C178.057 123.373 178.329 123.388 178.6 123.388ZM183.368 134.367C183.368 134.117 183.382 133.867 183.368 133.619C183.257 131.909 182.689 130.387 181.49 129.138C180.055 127.64 177.605 127.484 175.979 128.777C175.042 129.521 174.444 130.497 174.123 131.636C173.744 132.983 173.62 134.354 173.845 135.743C174.06 137.054 174.465 138.278 175.325 139.342C176.662 141 180.184 141.67 181.952 139.149C182.965 137.701 183.449 136.125 183.366 134.367H183.368Z" fill="#DDD7CB"/>
<path d="M137.683 129.618C137.111 128.412 136.574 127.266 136.024 126.127C135.924 125.918 135.979 125.793 136.14 125.663C136.474 125.392 136.841 125.163 137.232 124.982C139.239 124.042 141.329 123.41 143.554 123.326C144.785 123.28 145.997 123.41 147.154 123.87C149.676 124.874 151.052 126.784 151.52 129.413C151.629 130.038 151.682 130.672 151.68 131.307C151.68 135.615 151.68 139.923 151.68 144.231C151.68 144.299 151.68 144.367 151.68 144.435C151.662 144.928 151.662 144.943 151.189 144.945C149.854 144.954 148.518 144.945 147.182 144.953C146.85 144.953 146.673 144.852 146.663 144.497C146.651 144.162 146.593 143.829 146.489 143.51C146.444 143.497 146.396 143.497 146.351 143.51C146.306 143.524 146.266 143.55 146.235 143.585C144.74 144.982 142.933 145.514 140.933 145.413C138.167 145.277 136.07 144.015 134.905 141.473C133.688 138.818 134.403 135.608 136.984 133.719C138.426 132.663 140.048 132.073 141.795 131.813C143.138 131.613 144.488 131.473 145.834 131.29C146.321 131.226 146.354 131.18 146.33 130.689C146.32 130.417 146.291 130.146 146.243 129.879C146.008 128.636 145.069 127.844 143.64 127.691C142.372 127.554 141.09 127.766 139.934 128.303C139.142 128.667 138.388 129.107 137.683 129.618ZM146.399 137.237C146.399 136.671 146.409 136.104 146.399 135.535C146.389 135.084 146.377 135.077 145.932 135.127C144.988 135.235 144.044 135.335 143.105 135.467C142.499 135.549 141.908 135.722 141.354 135.979C140.519 136.375 140.011 137.035 139.768 137.906C139.377 139.314 140.027 140.44 141.435 140.826C141.543 140.86 141.652 140.887 141.764 140.908C143.381 141.149 144.803 140.689 146.075 139.696C146.186 139.618 146.275 139.513 146.333 139.39C146.391 139.268 146.417 139.133 146.408 138.998C146.387 138.417 146.4 137.828 146.399 137.237Z" fill="#DDD7CB"/>
<path d="M168.449 120.445C167.537 120.101 166.592 119.894 165.604 119.91C165.171 119.917 164.745 119.955 164.339 120.119C163.621 120.408 163.15 120.916 162.935 121.67C162.764 122.272 162.799 122.883 162.792 123.494C162.789 123.77 162.948 123.843 163.181 123.844H164.677C165.379 123.844 166.081 123.837 166.784 123.849C167.328 123.857 167.35 123.877 167.355 124.439C167.363 125.505 167.363 126.572 167.355 127.638C167.35 128.158 167.329 128.182 166.816 128.182C165.796 128.192 164.776 128.182 163.757 128.182C163.598 128.182 163.439 128.192 163.281 128.182C162.963 128.164 162.821 128.305 162.84 128.625C162.85 128.805 162.84 128.987 162.84 129.169V143.871C162.84 144.053 162.844 144.235 162.84 144.416C162.823 144.924 162.821 144.934 162.288 144.936C160.883 144.942 159.478 144.942 158.073 144.936C157.471 144.936 157.461 144.926 157.461 144.331C157.455 142.765 157.461 141.2 157.461 139.634C157.461 136.118 157.461 132.601 157.461 129.084C157.461 128.902 157.452 128.721 157.461 128.54C157.469 128.275 157.332 128.182 157.085 128.184C156.451 128.184 155.816 128.19 155.182 128.178C154.706 128.169 154.695 128.158 154.692 127.669C154.684 126.58 154.684 125.491 154.692 124.402C154.692 123.895 154.706 123.889 155.235 123.881C155.802 123.873 156.368 123.886 156.935 123.876C157.441 123.866 157.459 123.85 157.464 123.323C157.474 122.166 157.519 121.014 157.817 119.883C158.081 118.877 158.571 117.999 159.213 117.188C160.154 116 161.462 115.574 162.88 115.339C164.795 115.021 166.669 115.188 168.513 115.777C168.663 115.827 168.811 115.884 168.956 115.949C169.021 115.97 169.076 116.014 169.11 116.074C169.144 116.133 169.155 116.203 169.14 116.27C168.942 117.615 168.748 118.96 168.548 120.304C168.529 120.357 168.488 120.387 168.449 120.445Z" fill="#DDD7CB"/>
<path d="M67 123.991C67.1842 123.843 67.3712 123.891 67.5438 123.891C69.0394 123.887 70.5349 123.887 72.0304 123.891C72.6035 123.891 72.6082 123.896 72.838 124.477C74.4636 128.586 76.0889 132.695 77.7141 136.803C77.8364 137.112 77.901 137.453 78.1451 137.725C78.3347 137.613 78.3558 137.427 78.417 137.271C80.0362 133.039 81.6534 128.806 83.2686 124.571C83.5799 123.755 83.5181 123.898 84.2203 123.891C85.5799 123.882 86.9394 123.886 88.299 123.891C88.4968 123.891 88.7069 123.842 88.8945 123.959C88.9326 124.202 88.798 124.397 88.715 124.602C86.0453 131.174 83.3758 137.745 80.7065 144.316C80.4509 144.945 80.4482 144.945 79.7813 144.946C78.6257 144.946 77.47 144.93 76.3144 144.955C75.8895 144.964 75.6876 144.819 75.5191 144.417C72.8733 138.082 70.2167 131.752 67.5493 125.427C67.3514 124.951 67.0918 124.496 67 123.991Z" fill="#DDD7CB"/>
</g>
<defs>
<clipPath id="clip0_79_13609">
<rect width="166" height="145" fill="white" transform="translate(67 0.5)"/>
</clipPath>
</defs>
</svg>
