<svg width="464" height="353" viewBox="0 0 464 353" fill="none" xmlns="http://www.w3.org/2000/svg">
<g clip-path="url(#clip0_79_13591)">
<path d="M51.7469 283.256C51.8406 287.201 50.9607 291.108 49.185 294.633C47.5856 297.72 45.3231 300.415 42.5592 302.527C39.7456 304.608 36.5816 306.169 33.217 307.136C29.7379 308.153 26.1305 308.665 22.5054 308.657H0.220825V306.099C1.1734 306.084 2.12446 306.018 3.06988 305.901C3.86018 305.851 4.64017 305.695 5.38889 305.438C6.09056 305.189 6.67873 304.696 7.04532 304.049C7.39294 303.366 7.56738 302.609 7.5533 301.844V264.711C7.56327 263.954 7.41274 263.202 7.11158 262.506C6.76184 261.782 6.14436 261.221 5.38889 260.941C4.59161 260.558 3.74385 260.291 2.87111 260.147C1.99452 259.988 1.10972 259.877 0.220825 259.816V257.236H23.963C27.1897 257.24 30.3978 257.723 33.482 258.67C36.392 259.52 39.1497 260.822 41.6537 262.528C44.7963 264.673 47.342 267.579 49.0525 270.974C50.9194 274.794 51.8433 279.006 51.7469 283.256ZM42.493 283.256C42.5319 280.074 42.0469 276.908 41.0574 273.884C40.1486 271.202 38.7231 268.722 36.8611 266.586C35.0751 264.58 32.8749 262.986 30.4121 261.911C27.7519 260.755 24.8762 260.177 21.9753 260.213H18.4637H15.5925V299.727C15.4941 300.595 15.6259 301.474 15.9748 302.275C16.3236 303.076 16.8773 303.771 17.5802 304.291C19.4842 305.254 21.6125 305.688 23.7422 305.548C26.6227 305.616 29.4844 305.067 32.1348 303.939C34.4272 302.933 36.4315 301.372 37.9654 299.396C39.568 297.353 40.7535 295.016 41.455 292.517C42.2125 289.489 42.5763 286.376 42.5372 283.256" fill="#DDD7CB"/>
<path d="M88.6081 299.396C87.195 302.064 85.1378 304.337 82.6229 306.011C80.0811 307.7 77.0845 308.577 74.0315 308.525C71.4461 308.583 68.8804 308.063 66.5224 307.004C64.5198 306.11 62.7456 304.775 61.3322 303.101C59.9002 301.331 58.841 299.291 58.2181 297.103C57.5215 294.755 57.1718 292.319 57.1801 289.871C57.1819 287.584 57.5549 285.313 58.2844 283.145C58.9934 280.984 60.0856 278.967 61.5089 277.192C62.9018 275.496 64.6314 274.107 66.5886 273.112C68.7068 272.06 71.0473 271.531 73.4131 271.569C75.6793 271.518 77.9326 271.923 80.0389 272.76C81.7483 273.515 83.2599 274.655 84.456 276.089C85.582 277.482 86.4157 279.087 86.9075 280.808C87.4705 282.719 87.7459 284.703 87.7247 286.695V289.033H64.2254C64.2118 291.154 64.4415 293.27 64.9101 295.339C65.2991 297.107 66.0103 298.789 67.0082 300.3C67.9411 301.68 69.2004 302.808 70.6745 303.586C72.3541 304.417 74.2116 304.825 76.0855 304.776C78.0306 304.829 79.949 304.316 81.6069 303.299C83.4909 301.886 85.006 300.041 86.0241 297.919L88.6081 299.396ZM80.6573 285.99C80.6422 284.557 80.5241 283.128 80.3039 281.712C80.1362 280.391 79.7637 279.104 79.1996 277.897C78.6862 276.845 77.9291 275.931 76.991 275.229C75.8931 274.505 74.5955 274.143 73.2806 274.193C72.061 274.179 70.8556 274.456 69.7647 275C68.6737 275.545 67.7287 276.341 67.0082 277.324C65.1839 279.843 64.2233 282.882 64.2696 285.99H80.6573Z" fill="#DDD7CB"/>
<path d="M127.766 275.273C126.679 275.468 125.637 275.864 124.696 276.442C123.568 277.192 122.697 278.269 122.201 279.529C120.728 282.704 119.256 286.027 117.783 289.496C116.311 292.965 114.736 296.596 113.057 300.388C112.571 301.491 112.085 302.792 111.533 304.291C110.981 305.791 110.495 307.224 110.031 308.701H107.249C104.966 303.101 102.868 298 100.954 293.399C99.0327 288.79 97.0449 284.093 94.9689 279.264C94.5439 278.187 93.7653 277.285 92.7603 276.707C91.7669 276.122 90.6736 275.726 89.5358 275.538V273.179H105.968V275.692C105.056 275.739 104.152 275.887 103.273 276.133C102.191 276.398 101.661 276.773 101.661 277.258C101.691 277.45 101.751 277.636 101.838 277.809C101.838 278.096 102.08 278.449 102.191 278.824C103.163 281.249 104.554 284.623 106.365 288.989C108.176 293.355 109.612 296.838 110.782 299.506C111.644 297.456 112.726 294.898 114.029 291.877C115.332 288.856 116.547 285.461 118.115 281.58C118.358 280.94 118.579 280.345 118.799 279.794C119.015 279.253 119.128 278.677 119.131 278.096C119.123 277.879 119.065 277.666 118.962 277.475C118.858 277.284 118.712 277.119 118.534 276.993C118.096 276.656 117.613 276.382 117.099 276.177C116.578 275.948 116.039 275.764 115.487 275.626L114.183 275.384V273.179H127.766V275.273Z" fill="#DDD7CB"/>
<path d="M160.851 299.396C159.452 302.067 157.401 304.342 154.887 306.011C152.339 307.703 149.334 308.58 146.274 308.525C143.689 308.581 141.124 308.061 138.765 307.004C136.707 306.08 134.892 304.691 133.464 302.946C132.04 301.172 130.982 299.133 130.35 296.949C129.654 294.601 129.304 292.165 129.312 289.716C129.314 287.43 129.687 285.158 130.416 282.991C131.125 280.83 132.218 278.813 133.641 277.037C135.037 275.336 136.775 273.947 138.743 272.958C140.859 271.901 143.201 271.371 145.567 271.415C147.834 271.361 150.088 271.766 152.193 272.605C153.909 273.35 155.423 274.491 156.61 275.935C157.743 277.326 158.584 278.931 159.084 280.654C159.628 282.568 159.896 284.551 159.879 286.541V288.878H136.424C136.403 290.999 136.626 293.115 137.086 295.185C137.519 296.957 138.267 298.638 139.295 300.146C140.243 301.567 141.535 302.727 143.05 303.52C144.721 304.35 146.572 304.759 148.438 304.71C150.384 304.767 152.304 304.253 153.96 303.233C155.844 301.82 157.359 299.974 158.377 297.853L160.851 299.396ZM152.9 285.99C152.893 284.558 152.782 283.128 152.568 281.712C152.39 280.393 152.018 279.108 151.464 277.897C150.956 276.842 150.198 275.926 149.256 275.229C148.16 274.5 146.861 274.137 145.545 274.193C144.326 274.179 143.12 274.456 142.029 275C140.938 275.545 139.993 276.342 139.273 277.324C137.4 279.824 136.4 282.868 136.424 285.99H152.9Z" fill="#DDD7CB"/>
<path d="M181.589 308.613H164.274V306.254L166.041 306.077C166.565 306.051 167.084 305.962 167.587 305.813C168.216 305.638 168.759 305.238 169.111 304.688C169.462 304.056 169.63 303.338 169.597 302.616V261.823C169.606 260.989 169.416 260.166 169.045 259.419C168.713 258.719 168.212 258.113 167.587 257.655C166.828 257.224 165.998 256.933 165.135 256.795C164.218 256.594 163.289 256.454 162.353 256.376V254.171L175.604 253.4L176.112 253.929V302.197C176.082 302.909 176.242 303.617 176.576 304.247C176.92 304.818 177.45 305.254 178.078 305.482C178.58 305.714 179.106 305.891 179.646 306.011C180.218 306.152 180.802 306.241 181.39 306.276L181.589 308.613Z" fill="#DDD7CB"/>
<path d="M220.681 289.584C220.68 292.065 220.278 294.53 219.488 296.882C218.778 299.115 217.629 301.184 216.109 302.968C214.533 304.802 212.563 306.257 210.345 307.224C208.012 308.178 205.511 308.651 202.99 308.613C200.777 308.615 198.586 308.18 196.541 307.334C194.49 306.492 192.633 305.239 191.086 303.652C189.478 301.966 188.217 299.98 187.376 297.809C186.418 295.35 185.946 292.729 185.984 290.091C185.785 285.137 187.519 280.299 190.821 276.596C194.124 273.284 198.598 271.401 203.278 271.351C207.959 271.302 212.472 273.09 215.844 276.332C217.49 278.106 218.765 280.19 219.595 282.461C220.426 284.733 220.795 287.146 220.681 289.562M213.238 289.562C213.22 287.668 213.035 285.779 212.686 283.917C212.402 282.163 211.859 280.462 211.074 278.868C210.361 277.462 209.324 276.245 208.048 275.317C206.7 274.389 205.09 273.918 203.454 273.972C201.774 273.925 200.122 274.403 198.728 275.34C197.367 276.288 196.266 277.562 195.525 279.044C194.723 280.6 194.179 282.275 193.913 284.005C193.592 285.781 193.429 287.581 193.427 289.385C193.416 291.516 193.608 293.642 194.001 295.736C194.324 297.546 194.927 299.294 195.79 300.918C196.512 302.343 197.565 303.575 198.86 304.512C200.22 305.409 201.825 305.864 203.454 305.813C204.937 305.801 206.388 305.384 207.65 304.607C208.911 303.829 209.935 302.721 210.61 301.403C212.544 297.734 213.452 293.614 213.238 289.474" fill="#DDD7CB"/>
<path d="M258.227 276.861C259.67 278.576 260.786 280.542 261.518 282.66C262.342 285.095 262.738 287.654 262.688 290.223C262.721 292.825 262.248 295.408 261.297 297.831C260.43 299.996 259.173 301.984 257.586 303.696C256.055 305.289 254.233 306.576 252.219 307.489C250.247 308.371 248.108 308.822 245.947 308.812C244.174 308.864 242.404 308.618 240.713 308.084C239.516 307.697 238.384 307.132 237.356 306.408H237.069V316.992C237.026 317.76 237.202 318.525 237.577 319.197C237.933 319.775 238.48 320.211 239.123 320.432C239.923 320.705 240.742 320.919 241.574 321.071C242.448 321.245 243.334 321.355 244.224 321.402V323.762H224.347V321.402L226.556 321.226C227.191 321.163 227.819 321.045 228.433 320.873C228.756 320.777 229.056 320.616 229.314 320.399C229.572 320.183 229.783 319.917 229.935 319.616C230.238 318.96 230.389 318.244 230.377 317.521V280.036C230.374 279.309 230.184 278.596 229.824 277.964C229.496 277.33 229.019 276.785 228.433 276.376C227.876 276.044 227.262 275.82 226.622 275.714C225.894 275.561 225.156 275.458 224.413 275.406V273.046L236.516 272.253L237.024 272.694V276.641H237.312C238.61 275.16 240.185 273.946 241.95 273.068C243.64 272.156 245.527 271.664 247.449 271.635C249.555 271.61 251.637 272.086 253.522 273.024C255.34 273.936 256.949 275.212 258.249 276.773M252.396 302.086C253.422 300.505 254.169 298.76 254.605 296.927C255.082 294.754 255.312 292.535 255.289 290.312C255.279 288.503 255.087 286.701 254.715 284.931C254.376 283.249 253.765 281.632 252.904 280.146C252.111 278.797 251.015 277.649 249.702 276.795C248.292 275.981 246.698 275.541 245.07 275.518C243.442 275.495 241.835 275.889 240.404 276.663C239.193 277.419 238.106 278.356 237.179 279.441V300.234C237.436 300.95 237.793 301.625 238.239 302.241C238.708 302.901 239.257 303.501 239.873 304.027C240.604 304.616 241.414 305.098 242.281 305.46C243.29 305.866 244.373 306.062 245.461 306.033C246.827 306.027 248.168 305.662 249.348 304.975C250.612 304.241 251.686 303.221 252.484 301.998" fill="#DDD7CB"/>
<path d="M328.57 308.613H311.299V306.254L312.977 306.099C313.481 306.07 313.979 305.974 314.457 305.813C315.086 305.65 315.626 305.246 315.959 304.688C316.31 304.056 316.478 303.338 316.445 302.616V284.446C316.564 282.396 315.962 280.368 314.744 278.713C314.233 278.077 313.584 277.566 312.845 277.218C312.107 276.87 311.298 276.695 310.482 276.707C309.355 276.696 308.235 276.875 307.169 277.236C306.146 277.584 305.185 278.09 304.32 278.735C303.66 279.215 303.072 279.787 302.575 280.433C302.174 280.905 301.819 281.415 301.515 281.955V302.241C301.484 302.955 301.628 303.667 301.934 304.313C302.273 304.876 302.796 305.304 303.414 305.526C303.903 305.722 304.405 305.884 304.916 306.011C305.489 306.145 306.073 306.226 306.661 306.254V308.613H289.743V306.254L291.333 306.099C291.822 306.066 292.305 305.97 292.769 305.813C293.077 305.732 293.367 305.59 293.621 305.397C293.875 305.205 294.088 304.964 294.249 304.688C294.6 304.056 294.768 303.338 294.734 302.616V284.446C294.853 282.396 294.252 280.368 293.034 278.713C292.532 278.073 291.892 277.554 291.162 277.196C290.432 276.837 289.63 276.647 288.816 276.641C287.687 276.628 286.566 276.814 285.503 277.192C284.479 277.561 283.512 278.074 282.631 278.713C281.959 279.204 281.37 279.8 280.887 280.477L279.782 281.955V302.108C279.758 302.819 279.934 303.522 280.29 304.137C280.653 304.706 281.186 305.146 281.814 305.394C282.306 305.632 282.825 305.81 283.36 305.923C283.94 306.062 284.532 306.151 285.127 306.188V308.547H267.878V306.188L269.579 306.033C270.104 306.006 270.624 305.909 271.125 305.747C271.433 305.665 271.723 305.524 271.977 305.331C272.231 305.138 272.444 304.897 272.605 304.622C272.959 303.991 273.128 303.272 273.09 302.549V280.698C273.096 279.983 272.921 279.277 272.582 278.647C272.217 278.032 271.719 277.504 271.125 277.104C270.595 276.787 270.022 276.55 269.424 276.398C268.745 276.22 268.049 276.109 267.348 276.067V273.774L279.208 272.98L279.716 273.487V278.515H279.981C280.578 277.919 281.306 277.236 282.19 276.42C282.936 275.7 283.741 275.043 284.597 274.458C285.57 273.821 286.635 273.337 287.755 273.024C289.082 272.637 290.459 272.443 291.841 272.451C293.968 272.4 296.054 273.042 297.782 274.281C299.353 275.395 300.584 276.921 301.338 278.691L303.547 276.486C304.347 275.736 305.212 275.057 306.131 274.458C307.126 273.802 308.212 273.296 309.355 272.958C310.689 272.566 312.073 272.373 313.463 272.385C314.795 272.321 316.125 272.55 317.358 273.057C318.591 273.564 319.697 274.336 320.597 275.318C322.543 277.896 323.478 281.095 323.225 284.314V302.175C323.195 302.889 323.339 303.601 323.645 304.247C323.977 304.815 324.502 305.245 325.125 305.46C325.654 305.669 326.201 305.831 326.759 305.945C327.356 306.067 327.961 306.148 328.57 306.188V308.613Z" fill="#DDD7CB"/>
<path d="M364.393 299.396C362.98 302.064 360.923 304.337 358.408 306.011C355.866 307.7 352.87 308.577 349.817 308.525C347.231 308.583 344.666 308.063 342.307 307.003C340.246 306.074 338.426 304.686 336.985 302.946C335.561 301.172 334.502 299.133 333.871 296.949C333.181 294.6 332.839 292.164 332.855 289.716C332.846 287.429 333.219 285.156 333.959 282.991C334.659 280.826 335.752 278.808 337.184 277.037C338.571 275.337 340.302 273.947 342.263 272.958C344.382 271.905 346.722 271.376 349.088 271.415C351.354 271.364 353.607 271.769 355.714 272.605C357.428 273.353 358.941 274.493 360.131 275.935C361.264 277.326 362.105 278.931 362.604 280.654C363.156 282.567 363.432 284.55 363.421 286.541V288.878H340.011C339.99 290.999 340.212 293.115 340.673 295.185C341.097 296.96 341.846 298.642 342.882 300.146C343.815 301.525 345.074 302.654 346.548 303.431C348.228 304.262 350.085 304.671 351.959 304.622C353.904 304.675 355.822 304.162 357.48 303.145C359.358 301.725 360.872 299.882 361.898 297.764L364.393 299.396ZM356.442 285.99C356.427 284.557 356.309 283.128 356.089 281.712C355.921 280.391 355.549 279.104 354.985 277.897C354.471 276.845 353.714 275.931 352.776 275.229C351.678 274.505 350.381 274.143 349.066 274.193C347.843 274.181 346.635 274.458 345.541 275.002C344.447 275.547 343.498 276.342 342.771 277.324C340.965 279.85 340.013 282.886 340.055 285.99H356.442Z" fill="#DDD7CB"/>
<path d="M407.703 308.613H390.41V306.254L392.221 306.099C392.777 306.079 393.327 305.983 393.856 305.813C394.485 305.65 395.024 305.246 395.357 304.688C395.709 304.056 395.877 303.338 395.843 302.616V284.512C395.975 282.433 395.339 280.377 394.054 278.735C393.519 278.087 392.843 277.567 392.078 277.216C391.313 276.865 390.479 276.691 389.637 276.707C388.45 276.698 387.27 276.892 386.148 277.28C385.148 277.644 384.198 278.133 383.321 278.735C382.604 279.219 381.971 279.815 381.443 280.499C381.068 280.986 380.722 281.494 380.405 282.021V302.241C380.38 302.944 380.556 303.64 380.913 304.247C381.277 304.796 381.801 305.22 382.415 305.46C382.942 305.708 383.499 305.886 384.072 305.989C384.668 306.124 385.273 306.212 385.883 306.254V308.613H368.501V306.254L370.202 306.099C370.72 306.074 371.233 305.978 371.726 305.813C372.355 305.65 372.894 305.246 373.227 304.688C373.582 304.057 373.75 303.338 373.713 302.616V280.896C373.715 280.13 373.534 279.373 373.183 278.691C372.841 278.029 372.34 277.461 371.726 277.037C371.23 276.736 370.684 276.527 370.113 276.42C369.451 276.283 368.779 276.194 368.104 276.155V273.774L379.897 272.98L380.405 273.487V278.449H380.582C381.156 277.875 381.885 277.192 382.791 276.398C383.548 275.679 384.368 275.029 385.242 274.458C386.224 273.837 387.287 273.355 388.4 273.024C389.748 272.629 391.148 272.436 392.552 272.451C393.975 272.344 395.402 272.574 396.719 273.122C398.035 273.669 399.203 274.52 400.128 275.604C401.865 278.051 402.728 281.01 402.579 284.005V302.329C402.551 303.025 402.703 303.716 403.021 304.335C403.362 304.891 403.885 305.312 404.501 305.526C404.983 305.744 405.487 305.914 406.003 306.033C406.578 306.15 407.161 306.224 407.748 306.254L407.703 308.613Z" fill="#DDD7CB"/>
<path d="M433.963 306.32C432.417 306.959 430.938 307.511 429.546 307.952C427.882 308.43 426.154 308.653 424.422 308.613C423.278 308.735 422.122 308.6 421.037 308.218C419.951 307.837 418.965 307.219 418.15 306.408C416.836 304.577 416.196 302.35 416.339 300.102V276.244H409.934V272.826H416.56V261.801H423.186V272.826H433.367V276.244H423.097V295.89C423.097 297.39 423.097 298.602 423.252 299.595C423.345 300.498 423.615 301.375 424.047 302.175C424.432 302.878 425.037 303.435 425.77 303.762C426.751 304.155 427.805 304.335 428.862 304.291C429.458 304.291 430.341 304.291 431.512 304.115C432.342 304.084 433.166 303.951 433.963 303.718V306.32Z" fill="#DDD7CB"/>
<path d="M460.93 290.444C461.867 291.262 462.619 292.269 463.139 293.399C463.702 294.691 463.974 296.091 463.934 297.5C463.971 299.027 463.658 300.542 463.019 301.929C462.38 303.316 461.431 304.539 460.245 305.504C458.079 307.109 455.537 308.134 452.862 308.481C450.187 308.828 447.468 308.487 444.962 307.489C443.64 306.982 442.392 306.299 441.252 305.46L440.523 307.775H437.895L437.541 295.537H440.015C440.281 296.675 440.697 297.772 441.252 298.801C441.843 300.013 442.585 301.147 443.46 302.175C444.437 303.232 445.578 304.126 446.839 304.821C448.198 305.541 449.718 305.905 451.257 305.879C453.164 306.006 455.056 305.46 456.601 304.335C457.516 303.434 458.129 302.272 458.358 301.009C458.588 299.747 458.421 298.444 457.882 297.279C457.44 296.519 456.837 295.865 456.115 295.361C455.214 294.755 454.242 294.259 453.222 293.884C452.052 293.443 450.771 293.002 449.357 292.583C448.082 292.196 446.828 291.739 445.603 291.216C444.334 290.687 443.139 289.998 442.047 289.165C440.985 288.321 440.106 287.271 439.463 286.078C438.756 284.765 438.405 283.29 438.447 281.8C438.431 280.419 438.712 279.05 439.273 277.787C439.833 276.524 440.658 275.396 441.693 274.48C444.095 272.409 447.204 271.342 450.373 271.503C451.81 271.509 453.241 271.687 454.636 272.032C455.864 272.302 457.052 272.732 458.169 273.311L459.009 271.459H461.593L462.145 282.77H459.649C459.239 280.424 458.104 278.265 456.403 276.596C455.59 275.816 454.632 275.204 453.582 274.796C452.532 274.387 451.411 274.19 450.285 274.215C448.613 274.119 446.963 274.637 445.647 275.67C445.118 276.103 444.693 276.649 444.403 277.267C444.113 277.885 443.964 278.56 443.968 279.242C443.933 280.163 444.123 281.079 444.52 281.91C444.918 282.644 445.486 283.272 446.177 283.741C447.043 284.272 447.96 284.716 448.915 285.064C449.998 285.483 451.345 285.946 452.957 286.475C454.469 286.959 455.945 287.548 457.374 288.239C458.63 288.805 459.797 289.547 460.842 290.444" fill="#DDD7CB"/>
<path d="M255.223 0C260.424 5.25084 264.882 11.1856 268.475 17.6401C268.828 18.2575 269.181 18.8749 269.513 19.5143C270.087 20.5948 270.617 21.7193 271.125 22.7777C271.633 23.8362 271.986 24.652 272.406 25.6222C272.826 26.5924 273.201 27.5185 273.577 28.4887C273.952 29.4589 274.482 31.0024 274.902 32.2813C275.145 33.0531 275.41 33.8249 275.653 34.6187C276.271 36.8237 276.823 38.8743 277.287 41.0573C282.941 68.1127 276.381 91.6181 257.829 110.912C249.541 119.613 238.393 125.045 226.423 126.215C225.432 126.305 224.434 126.305 223.442 126.215C225.278 124.771 227.006 123.194 228.61 121.496C231.899 117.938 234.672 113.938 236.848 109.611C238.024 107.303 239.057 104.924 239.94 102.489C241.828 97.3313 243.262 92.0191 244.225 86.6128C244.755 83.4817 245.196 80.4167 245.572 77.3958C246.635 68.7365 246.953 60.0021 246.522 51.2885C246.389 48.5102 246.146 45.776 245.815 43.0638C245.237 38.2148 244.359 33.406 243.187 28.6651C242.436 25.6222 241.618 22.6013 240.625 19.6466C240.028 17.8385 239.41 16.0966 238.747 14.4208C238.747 14.2444 238.593 14.1121 238.526 13.9357C237.908 12.3922 237.29 10.8927 236.627 9.52564C235.235 6.48281 233.642 3.53624 231.857 0.705602L231.525 0.242552H162.308L161.977 0.705602C161.248 1.85221 160.564 3.04291 159.879 4.23361C158.797 6.15197 157.67 8.09239 156.787 10.1651C156.456 10.8927 156.169 11.6645 155.859 12.3701C154.686 15.1459 153.654 17.9793 152.767 20.8594C144.768 46.2079 144.93 73.4225 153.231 98.6742C154.424 102.29 155.771 105.899 157.273 109.501C158.112 111.463 159.04 113.382 160.034 115.19C162.949 120.563 166.749 125.409 171.275 129.522C177.775 135.488 186.255 138.841 195.084 138.938C208.335 139.379 222.249 140.217 236.45 141.451C238.689 141.683 240.905 142.096 243.076 142.686C245.285 143.282 247.78 144.053 250.387 144.891C254.572 146.313 258.203 149.013 260.767 152.609C262.426 154.58 263.448 157.007 263.696 159.57C263.945 162.133 263.408 164.711 262.158 166.963C261.675 167.692 261.087 168.345 260.413 168.904C259.887 169.319 259.325 169.688 258.735 170.006C258.559 170.129 258.374 170.24 258.183 170.337C256.44 171.203 254.539 171.706 252.595 171.814V171.947C252.286 171.947 252.021 171.947 251.734 171.947H251.491C250.58 171.944 249.671 171.862 248.774 171.704H248.598C228.279 169.499 229.074 141.341 193.626 142.289C180.309 142.995 167.092 139.642 155.727 132.675C150.58 129.718 145.805 126.157 141.504 122.069V205.86H322.607V0H255.223Z" fill="#DDD7CB"/>
<path d="M0 352.868V336.44H6.11776C7.34345 336.411 8.56192 336.636 9.69565 337.102C10.6066 337.508 11.3756 338.176 11.9042 339.02C12.4734 339.931 12.7579 340.99 12.7214 342.063C12.7544 343.122 12.4698 344.166 11.9042 345.062C11.3709 345.908 10.6039 346.582 9.69565 347.002C8.56354 347.476 7.345 347.709 6.11776 347.686H0.949689L1.72269 346.848V352.868H0ZM1.72269 347.002L0.949689 346.142H6.11776C7.45485 346.24 8.78371 345.865 9.87234 345.084C10.2777 344.69 10.5999 344.218 10.8199 343.697C11.0398 343.177 11.1532 342.617 11.1532 342.052C11.1532 341.487 11.0398 340.928 10.8199 340.407C10.5999 339.886 10.2777 339.415 9.87234 339.02C8.79095 338.222 7.45854 337.839 6.11776 337.94H0.949689L1.72269 337.102V347.002Z" fill="#DDD7CB"/>
<path d="M31.2513 353C30.074 353.014 28.9047 352.805 27.8059 352.383C26.7736 351.991 25.8336 351.391 25.0452 350.619C24.2727 349.865 23.6572 348.965 23.2342 347.973C22.8021 346.916 22.5844 345.784 22.5937 344.643C22.5613 342.978 23.0416 341.343 23.9698 339.959C24.898 338.574 26.2293 337.508 27.7839 336.904C28.8928 336.49 30.0676 336.281 31.2513 336.286C32.4207 336.281 33.5811 336.49 34.6746 336.904C35.6961 337.304 36.6271 337.903 37.4132 338.668C38.1928 339.416 38.8093 340.317 39.2243 341.314C39.6652 342.367 39.8833 343.501 39.8648 344.643C39.8832 345.792 39.6652 346.933 39.2243 347.995C38.8093 348.992 38.1928 349.892 37.4132 350.641C36.6259 351.398 35.6948 351.99 34.6746 352.383C33.5841 352.807 32.4216 353.017 31.2513 353ZM31.2513 351.457C32.189 351.472 33.1201 351.299 33.99 350.949C34.818 350.63 35.5702 350.142 36.1985 349.516C36.8275 348.89 37.3167 348.139 37.6341 347.311C37.9957 346.453 38.1761 345.53 38.1642 344.599C38.1718 343.669 37.9915 342.746 37.6341 341.887C37.3082 341.063 36.8201 340.313 36.1985 339.682C35.5658 339.061 34.8148 338.574 33.99 338.249C32.2196 337.571 30.261 337.571 28.4906 338.249C27.6682 338.579 26.918 339.065 26.282 339.682C24.9954 340.978 24.2735 342.73 24.2735 344.555C24.2735 346.38 24.9954 348.131 26.282 349.428C26.912 350.052 27.6638 350.54 28.4906 350.861C29.3613 351.243 30.3003 351.446 31.2513 351.457Z" fill="#DDD7CB"/>
<path d="M55.5015 353C54.2982 353.005 53.1029 352.804 51.9678 352.405C50.9972 352.099 50.1121 351.571 49.3838 350.861L50.0685 349.538C50.7451 350.162 51.5415 350.642 52.4095 350.949C53.3928 351.34 54.4433 351.535 55.5015 351.523C56.3563 351.546 57.2086 351.419 58.0193 351.148C58.5892 350.939 59.0874 350.572 59.4549 350.089C59.7624 349.667 59.9251 349.156 59.9187 348.634C59.9401 348.068 59.7424 347.515 59.3666 347.091C58.9594 346.673 58.4603 346.356 57.9089 346.165C57.265 345.931 56.6088 345.732 55.9433 345.569L53.7347 345.018C53.0423 344.835 52.3749 344.568 51.747 344.224C51.1596 343.919 50.6584 343.472 50.2893 342.923C49.8741 342.266 49.6806 341.493 49.7372 340.718C49.7432 339.938 49.9648 339.175 50.3777 338.513C50.8706 337.786 51.5597 337.212 52.3654 336.859C53.4585 336.417 54.6318 336.207 55.8107 336.242C56.7379 336.244 57.66 336.378 58.5494 336.639C59.386 336.871 60.1828 337.228 60.9126 337.697L60.3162 339.086C59.6373 338.631 58.8925 338.281 58.1077 338.05C57.3893 337.843 56.6467 337.732 55.8991 337.719C55.0712 337.694 54.2463 337.829 53.4697 338.116C52.9022 338.34 52.4061 338.714 52.0341 339.197C51.7338 339.638 51.5793 340.163 51.5924 340.696C51.5652 341.27 51.7633 341.831 52.1445 342.262C52.5456 342.682 53.0473 342.993 53.6022 343.166C54.2526 343.402 54.9163 343.601 55.5899 343.761C56.2966 343.937 57.0255 344.114 57.7985 344.334C58.4782 344.524 59.1368 344.783 59.7641 345.106C60.3494 345.404 60.8506 345.844 61.2218 346.385C61.6185 347.009 61.8115 347.741 61.7739 348.48C61.7788 349.261 61.5563 350.027 61.1334 350.685C60.6237 351.4 59.9291 351.964 59.1236 352.317C57.9826 352.812 56.7449 353.045 55.5015 353Z" fill="#DDD7CB"/>
<path d="M77.1235 353C75.9275 353.003 74.7397 352.802 73.6119 352.405C72.6354 352.098 71.7434 351.57 71.0057 350.861L71.6904 349.538C72.3706 350.157 73.1661 350.637 74.0315 350.949C75.0153 351.339 76.0654 351.533 77.1235 351.523C77.9855 351.546 78.845 351.419 79.6634 351.148C80.2333 350.939 80.7314 350.572 81.0989 350.089C81.3893 349.66 81.5432 349.152 81.5407 348.634C81.5621 348.068 81.3644 347.515 80.9885 347.091C80.5937 346.669 80.1006 346.35 79.5529 346.164C78.9025 345.928 78.2388 345.729 77.5652 345.569L75.3566 345.018C74.6671 344.826 74.0006 344.56 73.3689 344.224C72.7862 343.912 72.2865 343.466 71.9113 342.923C71.5071 342.261 71.3145 341.492 71.3591 340.718C71.3621 339.935 71.5922 339.169 72.0217 338.513C72.5041 337.776 73.1963 337.2 74.0094 336.859C75.0948 336.417 76.2609 336.207 77.4327 336.242C78.3672 336.243 79.2968 336.376 80.1934 336.639C81.0232 336.871 81.8127 337.227 82.5345 337.697L81.9603 339.086C81.2814 338.63 80.5366 338.281 79.7517 338.05C79.033 337.845 78.2906 337.733 77.5431 337.719C76.7079 337.692 75.8755 337.827 75.0916 338.116C74.5305 338.341 74.0417 338.714 73.6781 339.197C73.37 339.636 73.2077 340.16 73.2143 340.696C73.1871 341.27 73.3852 341.831 73.7665 342.262C74.1754 342.672 74.6745 342.981 75.2241 343.166C75.8425 343.386 76.5051 343.585 77.2119 343.761C77.9407 343.937 78.6474 344.114 79.4204 344.334C80.1002 344.524 80.7588 344.783 81.3861 345.106C81.9609 345.419 82.4588 345.856 82.8437 346.385C83.2405 347.009 83.4334 347.741 83.3959 348.48C83.3929 349.263 83.1628 350.029 82.7333 350.685C82.2286 351.405 81.5325 351.97 80.7235 352.316C79.5899 352.811 78.3596 353.044 77.1235 353Z" fill="#DDD7CB"/>
<path d="M94.2179 352.868V336.44H95.9627V352.868H94.2179Z" fill="#DDD7CB"/>
<path d="M108.507 352.868V336.44H115.597C117.106 336.344 118.607 336.73 119.882 337.543C120.37 337.896 120.763 338.366 121.025 338.908C121.287 339.451 121.411 340.05 121.383 340.652C121.401 341.432 121.186 342.2 120.765 342.857C120.341 343.466 119.75 343.94 119.064 344.224C118.33 344.558 117.53 344.724 116.723 344.709L117.143 344.136C118.072 344.112 118.996 344.277 119.86 344.621C120.581 344.907 121.198 345.407 121.626 346.054C122.07 346.76 122.293 347.581 122.267 348.414C122.292 349.039 122.164 349.66 121.894 350.225C121.625 350.789 121.222 351.28 120.721 351.655C119.335 352.517 117.711 352.918 116.083 352.802L108.507 352.868ZM110.252 351.434H116.061C117.214 351.507 118.364 351.246 119.374 350.685C119.731 350.409 120.021 350.054 120.22 349.649C120.419 349.244 120.523 348.799 120.523 348.347C120.523 347.896 120.419 347.451 120.22 347.046C120.021 346.64 119.731 346.286 119.374 346.01C118.364 345.448 117.214 345.188 116.061 345.26H110.053V343.827H115.487C116.562 343.895 117.633 343.633 118.556 343.077C118.881 342.808 119.142 342.471 119.321 342.09C119.5 341.709 119.593 341.293 119.593 340.872C119.593 340.451 119.5 340.036 119.321 339.655C119.142 339.273 118.881 338.936 118.556 338.667C117.627 338.13 116.559 337.876 115.487 337.94H110.252V351.434Z" fill="#DDD7CB"/>
<path d="M133.398 352.868V336.44H135.143V352.868H133.398Z" fill="#DDD7CB"/>
<path d="M147.688 352.868V336.44H149.432V351.368H158.642V352.868H147.688Z" fill="#DDD7CB"/>
<path d="M168.713 352.868V336.44H170.436V352.868H168.713Z" fill="#DDD7CB"/>
<path d="M186.183 352.868V337.94H180.396V336.44H193.648V337.94H187.861V352.868H186.183Z" fill="#DDD7CB"/>
<path d="M203.653 352.868V336.44H205.398V352.868H203.653Z" fill="#DDD7CB"/>
<path d="M219.665 351.368H229.56V352.868H217.92V336.44H229.184V337.94H219.621L219.665 351.368ZM219.489 343.783H228.19V345.26H219.489V343.783Z" fill="#DDD7CB"/>
<path d="M245.373 353C244.177 353.003 242.989 352.802 241.861 352.405C240.885 352.098 239.993 351.57 239.255 350.861L239.94 349.538C240.62 350.157 241.415 350.637 242.281 350.949C243.264 351.34 244.315 351.535 245.373 351.523C246.235 351.546 247.094 351.419 247.913 351.148C248.48 350.944 248.972 350.576 249.326 350.089C249.634 349.667 249.796 349.156 249.79 348.634C249.811 348.068 249.614 347.515 249.238 347.091C248.843 346.669 248.35 346.35 247.802 346.164C247.152 345.928 246.488 345.729 245.815 345.569L243.606 345.018C242.916 344.826 242.25 344.56 241.618 344.224C241.036 343.912 240.536 343.466 240.161 342.923C239.756 342.261 239.564 341.492 239.609 340.718C239.611 339.935 239.842 339.169 240.271 338.513C240.753 337.776 241.446 337.2 242.259 336.859C243.344 336.417 244.51 336.207 245.682 336.242C246.616 336.244 247.546 336.378 248.443 336.639C249.273 336.871 250.062 337.227 250.784 337.697L250.21 339.086C249.531 338.63 248.786 338.281 248.001 338.05C247.282 337.845 246.54 337.733 245.793 337.719C244.957 337.692 244.125 337.827 243.341 338.116C242.78 338.341 242.291 338.714 241.928 339.197C241.619 339.636 241.457 340.16 241.464 340.696C241.436 341.27 241.635 341.831 242.016 342.262C242.425 342.672 242.924 342.981 243.474 343.166C244.124 343.402 244.788 343.601 245.461 343.761C246.19 343.937 246.897 344.114 247.67 344.334C248.358 344.521 249.024 344.779 249.658 345.106C250.232 345.419 250.73 345.856 251.115 346.385C251.512 347.009 251.705 347.741 251.667 348.48C251.664 349.263 251.434 350.029 251.005 350.685C250.5 351.405 249.804 351.97 248.995 352.316C247.855 352.814 246.616 353.047 245.373 353Z" fill="#DDD7CB"/>
<path d="M282.433 353C281.528 353.052 280.622 352.919 279.771 352.608C278.92 352.297 278.142 351.815 277.486 351.192C276.838 350.471 276.344 349.626 276.033 348.709C275.721 347.792 275.6 346.821 275.675 345.856V336.44H277.397V345.768C277.239 347.355 277.715 348.94 278.722 350.178C279.209 350.655 279.791 351.026 280.43 351.265C281.069 351.504 281.751 351.607 282.433 351.567C283.121 351.609 283.811 351.508 284.457 351.268C285.104 351.029 285.693 350.658 286.187 350.178C287.176 348.931 287.643 347.351 287.49 345.768V336.44H289.191V345.856C289.266 346.821 289.144 347.792 288.833 348.709C288.521 349.626 288.027 350.471 287.38 351.192C286.723 351.815 285.945 352.297 285.094 352.608C284.243 352.919 283.337 353.052 282.433 353Z" fill="#DDD7CB"/>
<path d="M301.603 352.868V336.44H303.039L314.391 350.707H313.64V336.44H315.319V352.868H313.883L302.553 338.601H303.304V352.868H301.603Z" fill="#DDD7CB"/>
<path d="M327.907 352.868V336.44H329.63V351.368H338.862V352.868H327.907Z" fill="#DDD7CB"/>
<path d="M355.802 353C354.617 353.017 353.44 352.807 352.334 352.383C351.311 351.985 350.38 351.385 349.596 350.619C348.816 349.87 348.2 348.97 347.785 347.973C347.342 346.919 347.124 345.785 347.144 344.643C347.127 343.533 347.335 342.431 347.756 341.404C348.178 340.377 348.803 339.446 349.596 338.668C350.382 337.903 351.313 337.304 352.334 336.904C353.443 336.49 354.618 336.281 355.802 336.286C356.971 336.283 358.131 336.492 359.225 336.904C360.246 337.304 361.178 337.903 361.964 338.668C362.743 339.416 363.36 340.317 363.775 341.314C364.216 342.367 364.434 343.501 364.415 344.643C364.434 345.792 364.216 346.933 363.775 347.995C363.36 348.992 362.743 349.892 361.964 350.641C361.176 351.398 360.245 351.99 359.225 352.383C358.134 352.805 356.972 353.014 355.802 353ZM355.802 351.457C356.739 351.472 357.671 351.299 358.54 350.949C359.368 350.63 360.121 350.142 360.749 349.516C361.37 348.884 361.859 348.135 362.185 347.311C362.546 346.453 362.727 345.53 362.715 344.599C362.724 343.698 362.555 342.803 362.218 341.967C361.88 341.131 361.381 340.369 360.749 339.726C360.116 339.105 359.365 338.618 358.54 338.293C356.77 337.616 354.811 337.616 353.041 338.293C352.219 338.623 351.468 339.11 350.832 339.726C350.195 340.349 349.697 341.1 349.375 341.931C348.668 343.67 348.668 345.616 349.375 347.355C349.697 348.186 350.195 348.938 350.832 349.56C351.462 350.184 352.214 350.672 353.041 350.994C353.921 351.33 354.86 351.488 355.802 351.457Z" fill="#DDD7CB"/>
<path d="M382.658 353C381.481 353.017 380.311 352.807 379.213 352.383C378.199 351.99 377.275 351.398 376.496 350.641C375.724 349.886 375.108 348.987 374.685 347.995C374.255 346.93 374.038 345.791 374.045 344.643C374.037 343.502 374.255 342.371 374.685 341.313C375.108 340.321 375.724 339.422 376.496 338.667C377.286 337.908 378.216 337.309 379.235 336.903C380.336 336.49 381.504 336.28 382.68 336.286C383.826 336.279 384.964 336.481 386.037 336.881C387.053 337.263 387.962 337.883 388.688 338.69L387.583 339.792C386.966 339.136 386.212 338.625 385.375 338.293C384.534 337.98 383.643 337.824 382.746 337.83C381.802 337.823 380.866 337.995 379.986 338.337C379.163 338.667 378.413 339.154 377.777 339.77C377.147 340.404 376.645 341.152 376.297 341.975C375.957 342.839 375.785 343.759 375.789 344.687C375.781 345.616 375.954 346.537 376.297 347.399C376.636 348.227 377.14 348.977 377.777 349.604C378.407 350.228 379.159 350.716 379.986 351.038C380.863 351.389 381.801 351.562 382.746 351.545C383.643 351.551 384.534 351.394 385.375 351.082C386.212 350.75 386.966 350.238 387.583 349.582L388.688 350.685C387.956 351.484 387.049 352.103 386.037 352.493C384.951 352.864 383.806 353.035 382.658 353Z" fill="#DDD7CB"/>
<path d="M399.576 352.868V336.44H401.32V352.868H399.576ZM401.078 348.788V346.583L411.06 336.352H413.048L405.782 343.959L404.788 345.018L401.078 348.788ZM411.414 352.868L404.302 344.687L405.495 343.43L413.49 352.868H411.414Z" fill="#DDD7CB"/>
<path d="M425.217 351.368H435.112V352.868H423.539V336.44H434.825V337.94H425.284L425.217 351.368ZM425.019 343.783H433.72V345.26H425.019V343.783Z" fill="#DDD7CB"/>
<path d="M446.375 352.868V336.44H453.001C454.602 336.399 456.188 336.755 457.617 337.477C458.905 338.133 459.978 339.142 460.709 340.387C461.432 341.694 461.812 343.162 461.812 344.654C461.812 346.146 461.432 347.615 460.709 348.921C459.971 350.16 458.9 351.169 457.617 351.831C456.184 352.543 454.601 352.898 453.001 352.868H446.375ZM448.12 351.368H452.979C454.298 351.405 455.604 351.109 456.778 350.508C457.825 349.968 458.698 349.142 459.296 348.127C459.876 347.057 460.179 345.86 460.179 344.643C460.179 343.426 459.876 342.229 459.296 341.159C458.698 340.15 457.825 339.332 456.778 338.8C455.604 338.199 454.298 337.903 452.979 337.94H448.12V351.368Z" fill="#DDD7CB"/>
</g>
<defs>
<clipPath id="clip0_79_13591">
<rect width="464" height="353" fill="white"/>
</clipPath>
</defs>
</svg>
