<svg width="79" height="94" viewBox="0 0 79 94" fill="none" xmlns="http://www.w3.org/2000/svg">
<path d="M51.8648 0.032214C56.8394 5.08845 60.244 11.4545 61.6738 18.3731C64.2337 30.6245 61.2593 41.265 52.84 50.0045C49.0817 53.9347 44.0221 56.3935 38.5858 56.9316C38.1366 56.9607 37.6859 56.9607 37.2367 56.9316C40.7005 54.1196 43.2922 50.3948 44.7133 46.1864C45.5767 43.8506 46.2294 41.4436 46.6637 38.9935C48.5979 27.7167 48.0615 17.7609 45.0384 8.67506C44.0498 5.62846 42.685 2.71468 40.975 0H9.28077C7.45773 2.83263 6.0512 5.90826 5.10361 9.13419C0.945705 22.3258 1.67188 36.5549 7.15157 49.2634C8.57268 52.7123 10.7424 55.8088 13.5066 58.3332C16.4557 61.0499 20.3217 62.578 24.3477 62.6183C30.3615 62.8197 36.6841 63.1983 43.1286 63.7541C45.3059 64.0428 47.4415 64.5835 49.4918 65.365C51.392 66.0112 53.0384 67.2344 54.1972 68.8608C55.7657 70.9632 56.0176 73.5165 54.8311 75.3611C54.3238 76.0303 53.6693 76.5761 52.9174 76.9571C52.1654 77.3382 51.3358 77.5443 50.4914 77.5601V77.6165C50.3532 77.6165 50.2395 77.6165 50.1013 77.6165H49.9875C49.89 77.6165 49.8007 77.6165 49.7031 77.6165C39.3741 77.4715 40.4143 63.746 23.6976 64.1971C6.59081 64.6562 0 53.7258 0 53.7258V94H79V0.032214H51.8648Z" fill="#DDD7CB"/>
</svg>
