<svg width="1899" height="1080" viewBox="0 0 1899 1080" fill="none" xmlns="http://www.w3.org/2000/svg">
<path d="M1889.63 714.794C1887.38 703.924 1884.63 693.275 1881.51 682.816C1880.8 680.414 1879.97 678.102 1879.22 675.74C1876.76 667.924 1874.14 660.227 1871.22 652.66C1869.92 649.288 1868.54 645.965 1867.22 642.652C1864.61 636.366 1861.84 630.164 1858.92 624.046C1857.14 620.273 1855.32 616.519 1853.41 612.806C1850.65 607.472 1847.73 602.267 1844.73 597.083C1842.45 593.079 1840.21 589.076 1837.73 585.122C1835.01 580.769 1832.07 576.585 1829.18 572.362C1823.06 563.347 1816.6 554.64 1809.81 546.239C1807.73 543.667 1805.81 541.025 1803.62 538.502C1799.62 533.798 1795.36 529.305 1791.14 524.801C1789.36 522.909 1787.71 520.877 1785.89 519.016H1785.65C1713.91 445.603 1614.07 401.345 1503.67 401.345C1485.3 401.359 1466.96 402.602 1448.76 405.068C1360.33 416.862 1278.66 458.817 1217.52 523.86V170.226C1217.53 147.872 1213.13 125.737 1204.58 105.084C1196.04 84.4315 1183.52 65.6658 1167.73 49.8587C1151.94 34.0516 1133.2 21.5127 1112.57 12.9579C1091.94 4.4031 1069.83 -3.86428e-08 1047.5 0L0 0V1080.93H1217.52V1080.66C1237.22 1103.11 1259.41 1123.24 1283.68 1140.65C1311.03 1162.54 1351.75 1185.69 1408 1196.81C1409.3 1197.09 1410.55 1197.52 1411.85 1197.81C1414.11 1198.28 1416.62 1198.45 1418.95 1198.81C1423.13 1199.5 1427.39 1200.12 1431.74 1200.64C1434.44 1200.94 1437.11 1201.23 1439.85 1201.43C1456 1203.16 1472.24 1203.82 1488.48 1203.43C1658.54 1198.81 1654.68 1334.62 1752.17 1345.65C1752.47 1345.65 1752.73 1345.83 1753.05 1345.87C1757.34 1346.62 1761.69 1347 1766.05 1347C1766.5 1347 1766.92 1346.87 1767.37 1346.87C1768.73 1346.87 1769.92 1347.07 1771.36 1346.98V1346.43C1780.76 1345.86 1789.94 1343.41 1798.36 1339.2C1798.79 1338.98 1799.13 1338.68 1799.54 1338.45C1802.91 1336.69 1806.09 1334.59 1809.03 1332.16C1811.77 1329.08 1814.52 1326.01 1817.26 1322.93C1826.64 1308.12 1827.48 1289.09 1820.32 1271.02C1817.82 1264.77 1814.52 1258.87 1810.51 1253.47C1797.08 1235.28 1780.35 1222.73 1760.79 1216.2C1735.65 1207.81 1714.73 1201.19 1693.49 1199.38C1625.4 1193.37 1558.59 1189.37 1494.97 1187.25C1472.56 1186.52 1451.99 1182.45 1433.08 1174.89C1413.86 1167.12 1396.21 1155.93 1380.98 1141.86C1352.42 1115.84 1329.84 1083.22 1313.86 1045.05C1255.79 906.338 1248.5 762.235 1292.18 616.74C1296.98 600.691 1302.7 584.935 1309.32 569.549C1309.52 569.079 1309.69 568.598 1309.9 568.148C1315.45 555.626 1321.73 543.438 1328.7 531.647C1330.52 528.544 1332.3 525.431 1334.17 522.409C1349.79 497.507 1367.97 475.558 1389.34 456.712C1423.33 426.686 1462.81 410.873 1503.56 410.873C1543.61 410.873 1582.54 426.236 1616.26 455.261C1637.99 474.065 1656.76 496.04 1671.94 520.447C1674.21 524.05 1676.35 527.863 1678.5 531.617C1680.25 534.619 1682.05 537.622 1683.74 540.724C1685.74 544.438 1687.6 548.421 1689.52 552.304C1691.25 555.817 1693.05 559.24 1694.7 562.873C1696.07 565.876 1697.31 569.039 1698.62 572.091C1700.69 576.935 1702.83 581.71 1704.8 586.774C1704.83 586.876 1704.86 586.976 1704.89 587.074C1707.98 595.081 1710.89 603.298 1713.76 611.845C1717.76 623.956 1721.35 636.203 1724.53 648.587C1746.77 735.442 1748.85 829.662 1730.98 935.273C1726.39 961.41 1719.49 987.089 1710.38 1012.01C1692.98 1060.44 1666.48 1098.85 1631.31 1126.74C1631.38 1126.75 1631.45 1126.75 1631.52 1126.74C1631.49 1126.77 1631.45 1126.8 1631.41 1126.83C1636.18 1127.1 1640.96 1126.99 1645.72 1126.51C1705.17 1119.77 1755.83 1094.89 1796.25 1052.57C1863.05 982.594 1897.41 901.204 1898.96 809.665C1899.38 777.792 1896.25 745.972 1889.63 714.794Z" fill="#006691"/>
</svg>
